<?xml version="1.0" encoding="iso-8859-1"?>
<!-- Generator: Adobe Illustrator 19.0.0, SVG Export Plug-In . SVG Version: 6.00 Build 0)  -->
<svg version="1.1" id="Capa_1" xmlns="http://www.w3.org/2000/svg" xmlns:xlink="http://www.w3.org/1999/xlink" x="0px" y="0px"
	 viewBox="0 0 468.293 468.293" style="enable-background:new 0 0 468.293 468.293;" xml:space="preserve">
<path style="fill:#31978C;" d="M61.099,170.49c-1.902-4.034-7.816-3.489-8.961,0.821c-4.583,17.246-2.941,36.204-4.112,54.316
	c-0.545,8.429-1.572,17.56,2.912,24.717c1.74,2.778,4.215,5.053,5.845,7.897c3.858,6.734,2.307,15.116,0.968,22.761
	c-1.338,7.645-2.082,16.367,2.87,22.343c4.706,5.679,13.027,6.818,20.351,5.948c3.996-0.475,8.147-1.533,11.03-4.342
	c2.509-2.444,3.731-5.892,4.731-9.249c5.106-17.15,6.319-36.513-0.573-53.359c-1.714-4.19-4.231-7.694-6.397-11.614
	c-1.732-3.134-2.173-6.51-3.366-9.856c-3.576-10.026-8.989-19.491-14.055-28.815C68.473,184.94,64.556,177.821,61.099,170.49z"/>
<path style="fill:#3EA69B;" d="M55.54,217.779c-0.179,4.606-0.703,9.223-0.271,13.812c0.992,10.531,6.862,19.87,10.589,29.769
	c1.452,3.856,2.597,8.034,1.742,12.064c-0.776,3.658-3.114,6.789-4.292,10.337c-1.969,5.927-0.424,12.929,4.099,17.322
	c1.253,1.217,2.747,2.189,4.416,2.703c6.891,2.124,12.783-3.729,16.719-9.327c1.968-2.798,3.812-5.683,5.525-8.644
	c2.016-3.482,3.884-7.175,4.32-11.175c0.31-2.848-0.122-5.724-0.695-8.531c-2.034-9.966-5.877-19.56-11.284-28.174
	c-1.842-2.935-3.874-5.777-5.249-8.958c-1.51-3.496-2.177-7.288-3.312-10.923c-2.294-7.349-6.449-13.884-10.566-20.32
	c-1.476-2.308-2.812-4.742-4.104-7.204c-2.278-4.341-8.828-2.657-8.738,2.244C54.595,201.181,55.848,209.835,55.54,217.779z"/>
<g>
	<path style="fill:#31978C;" d="M63.892,209.39c2.171,0.402,3.724,2.298,4.891,4.173c1.845,2.964,3.237,6.209,4.114,9.588
		c1.04,4.008,1.353,8.17,2.25,12.212c0.897,4.042,2.481,8.106,5.537,10.9c1.988-2.604,2.007-6.182,1.661-9.439
		c-0.735-6.917-2.735-13.697-5.871-19.906c-1.874-3.71-4.223-7.294-7.557-9.776c-1.61-1.198-3.609-2.145-5.573-1.734
		c-3.194,0.667-4.617,4.396-5.108,7.622c-0.29,1.91-0.941,17.54,3.017,12.112c0.976-1.338,0.154-4.999,0.318-6.585
		C61.894,215.421,62.709,212.309,63.892,209.39z"/>
	<path style="fill:#31978C;" d="M64.624,241.816c0.379-1.143,1.247-2.332,2.451-2.312c0.462,0.008,0.899,0.198,1.322,0.384
		c2.472,1.091,5.047,2.26,6.714,4.387c0.76,0.97,1.298,2.343,0.681,3.411c-0.1,0.172-0.231,0.333-0.408,0.424
		c-0.206,0.106-0.449,0.106-0.679,0.074c-1.455-0.199-2.474-1.476-3.446-2.576c-0.972-1.1-2.322-2.194-3.751-1.856
		c-0.77,0.182-1.38,0.751-2.069,1.14C62.739,246.417,64.2,243.096,64.624,241.816z"/>
	<path style="fill:#31978C;" d="M82.972,267.197c0.016,0.768,0.009,1.606-0.473,2.204c-0.729,0.905-2.108,0.797-3.215,1.15
		c-1.817,0.579-2.904,2.469-3.348,4.323c-0.444,1.854-0.422,3.8-0.92,5.641c-0.504,1.863-1.519,3.538-2.438,5.234
		c-0.554,1.023-1.09,2.119-1.062,3.282c0.029,1.163,0.817,2.39,1.974,2.512c1.087,0.114,2.032-0.737,2.672-1.623
		c1.009-1.398,1.665-3.048,1.891-4.757c0.283-2.137-0.098-4.311,0.07-6.461c0.168-2.149,1.086-4.468,3.056-5.343
		c1.296-0.576,2.856-0.438,4.067-1.176c1.686-1.029,2.044-3.314,1.968-5.288c-0.072-1.862-0.889-7.75-3.395-8.205
		C82.071,258.374,82.943,265.819,82.972,267.197z"/>
	<path style="fill:#31978C;" d="M376.94,213.161c1.052-13.99,3.404-27.881,7.009-41.439c1.316-4.951,8.181-5.387,10.166-0.663
		c5.945,14.148,9.031,29.699,16.09,43.412c4.06,7.886,9.524,15.45,10.427,24.273c0.414,4.05-0.174,8.128-0.76,12.157
		c-1.384,9.503-2.981,19.511-9.027,26.972c-1.28,1.579-2.76,3.046-3.597,4.899c-1.07,2.37-0.962,5.079-0.871,7.678
		c0.343,9.744-0.46,20.881-8.076,26.97c-1.625,1.299-3.663,2.321-5.72,2.009c-1.521-0.23-2.831-1.151-4.142-1.955
		c-4.997-3.065-10.848-4.698-16.707-4.747c-3.262-0.027-5.774-2.872-5.322-6.103l5.308-37.93c0.732-5.227,0.35-9.714,0.061-14.899
		c-0.242-4.343,1.292-6.169,2.53-10.113C377.24,234.346,376.211,222.849,376.94,213.161z"/>
</g>
<path style="fill:#3EA69B;" d="M405.566,220.996c1.971,3.716,4.173,7.369,5.299,11.422c1.047,3.77,1.12,7.735,1.102,11.648
	c-0.042,9.626-0.714,19.697-5.675,27.946c-2.003,3.33-4.698,6.355-5.694,10.11c-0.938,3.536-0.249,7.271-0.248,10.929
	c0.002,7.919-4.424,16.611-12.166,18.275c-5.035,1.082-10.181-0.996-14.757-3.358c-0.762-0.393-1.545-0.818-2.05-1.511
	c-0.774-1.061-0.725-2.493-0.637-3.804c0.984-14.673,2.7-29.286,4.415-43.892c0.149-1.268,0.302-2.554,0.784-3.736
	c0.591-1.45,1.641-2.659,2.453-3.998c2.344-3.865,2.607-8.594,2.879-13.106c1.033-17.142,3.101-34.222,6.187-51.116
	c0.276-1.51,0.56-3.03,0.742-4.555c0.194-1.627,2.239-2.294,3.275-1.025c0.044,0.054,0.082,0.105,0.114,0.151
	c0.984,1.433,1.848,3.004,2.339,4.675c1.111,3.786,1.446,7.89,2.484,11.731C398.587,205.829,401.66,213.633,405.566,220.996z"/>
<g>
	<path style="fill:#31978C;" d="M392.177,207.648c-3.097,9.409-4.205,19.333-5.624,29.136c-0.463,3.197-0.982,6.457-2.485,9.317
		c-0.092-5.08-0.185-10.16-0.277-15.24c-0.088-4.85-0.174-9.735,0.665-14.512c0.838-4.777,2.67-9.496,5.973-13.048
		c0.216-0.233,0.462-0.472,0.776-0.519c0.373-0.056,0.724,0.174,1.024,0.403c5.504,4.181,8.222,10.98,10.69,17.437
		c0.686,1.795,1.38,3.628,1.467,5.547c0.079,1.745-0.402,3.831-1.891,4.852C397.831,224.656,395.335,214.949,392.177,207.648z"/>
	<path style="fill:#31978C;" d="M392.287,245.791c-2.017,0.536-4.237,8.64-4.019,10.716c0.297,2.825,0.593,5.65,0.89,8.475
		c0.048,0.453,0.114,0.947,0.445,1.261c0.361,0.342,0.912,0.355,1.408,0.349c1.768-0.023,3.535-0.046,5.303-0.069
		c1.92,3.132,0.246,7.205-1.813,10.248c-0.7,1.035-1.461,2.078-1.727,3.298c-0.365,1.675,0.26,3.393,0.924,4.973
		c0.664,1.58,1.392,3.226,1.241,4.934c-0.151,1.707-1.558,3.441-3.263,3.267c-2.904-1.907-4.701-5.294-4.947-8.759
		c-0.246-3.466,0.979-6.96,3.099-9.712c0.361-0.469,0.766-0.967,0.78-1.559c0.021-0.909-0.854-1.538-1.571-2.097
		c-3.174-2.476-4.754-6.615-4.81-10.641s1.255-7.959,2.999-11.587c1.191-2.479,2.673-4.946,4.977-6.448
		c2.303-1.502,5.614-1.761,7.678,0.056c1.564,1.377,2.32,5.397-0.362,5.674C397.055,248.424,395.384,244.967,392.287,245.791z"/>
</g>
<path style="fill:#44C4A1;" d="M380.947,215.165c-1.169,17.538-2.346,35.077-3.523,52.606c-0.275,4.257-0.568,8.54-1.653,12.672
	c-1.06,4.049-2.88,7.872-4.683,11.645c-2.521,5.301-5.034,10.601-7.555,15.894l-6.227,13.072c-1.077,2.287-1.778,4.633-2.154,7.004
	c-3.965,25.101-15.476,48.408-34.158,65.645c-4.124,3.79-8.381,7.429-12.889,10.802c-6.478,4.858-13.081,9.182-19.124,14.625
	c-5.392,4.858-10.276,10.243-15.117,15.643c-9.049,10.092-17.689,19.775-29.534,26.445c-0.142,0.083-0.267,0.15-0.367,0.209
	c-0.676,0.326-1.352,0.634-2.02,0.943c-0.359,0.167-0.71,0.334-1.068,0.501c-4.741,2.229-9.742,3.873-14.875,4.9
	c-5.059,1.002-10.159,0.534-16.036-1.177c-14.283-4.174-26.495-13.531-34.667-25.969l-0.793-1.202L138.9,385.205
	c-1.144-1.736-2.245-3.489-3.331-5.259c-10.351-17.029-17.839-35.619-22.939-54.927c-1.528-5.776-4.616-11.553-7.571-17.413
	c-5.718-11.353-11.478-22.814-14.734-35.102c-2.429-9.149-6.085-17.663-8.94-26.504c-1.018-3.155-1.937-6.361-2.663-9.65
	c-0.142-0.651-0.275-1.302-0.401-1.953c-0.192-0.993-0.367-1.978-0.534-2.972c-0.451-2.613-0.826-5.226-1.119-7.855
	c-0.242-2.112-0.442-4.224-0.584-6.336c-0.2-2.913-0.317-5.818-0.342-8.732c-0.033-2.554,0.017-5.117,0.134-7.68
	c0.075-1.903,0.2-3.798,0.359-5.693c0.175-2.17,0.401-4.341,0.668-6.503c0.284-2.212,0.618-4.416,1.002-6.611
	c2.463-14.299,7.02-28.298,13.565-41.529c11.912-24.125,30.41-45.67,54.827-61.705c59.744-39.234,135.707-32.873,184.565,11.052
	c8.857,7.955,16.82,17.146,23.64,27.53c7.797,11.87,13.565,24.508,17.405,37.522c4.082,13.815,4.316,28.24,6.428,42.489
	L380.947,215.165z"/>
<g>
	<path style="fill:#3EA69B;" d="M151.845,268.151c-12.631,0.78-23.62-2.311-28.016-7.315c-0.712-0.81-2.036-0.467-2.299,0.579
		c-0.168,0.67-0.236,1.348-0.194,2.032c0.466,7.551,13.919,12.866,30.048,11.87c16.129-0.995,28.826-7.924,28.36-15.475
		c-0.001-0.01-0.001-0.019-0.002-0.029c-0.075-1.129-1.502-1.613-2.282-0.794C172.927,263.778,163.247,267.448,151.845,268.151z"/>
	<path style="fill:#3EA69B;" d="M149.807,289.964c-10.161,0.627-19.005-1.848-22.578-5.863c-0.581-0.653-1.667-0.453-1.885,0.393
		c-0.142,0.551-0.199,1.11-0.164,1.673c0.376,6.096,11.236,10.386,24.255,9.582c13.02-0.804,23.269-6.396,22.893-12.492
		c0-0.008-0.001-0.015-0.001-0.023c-0.061-0.926-1.231-1.277-1.874-0.607C166.779,286.452,158.983,289.398,149.807,289.964z"/>
</g>
<path style="fill:#2F4859;" d="M173.417,331.469c5.207-2.338,10.414-4.676,15.622-7.013c6.516-2.925,13.081-5.868,20.032-7.512
	c8.53-2.018,17.403-2.024,26.158-1.6c15.036,0.727,30.776,2.987,42.819,12.018c2.17,1.627,4.207,3.476,5.748,5.708
	c5.174,7.492,3.849,17.52,2.312,26.494c-0.545,3.184-1.091,6.369-1.636,9.553c-1.245,7.27-2.948,15.301-8.953,19.583
	c-2.897,2.066-6.56,3.037-9.061,5.567c-0.809,0.818-1.483,1.789-2.433,2.438c-1.268,0.867-2.89,1.059-4.422,0.935
	c-5.908-0.479-10.629-5.063-16.264-6.903c-2.181-0.712-4.474-1.003-6.749-1.297c-10.855-1.402-21.69-2.957-32.501-4.666
	c-16.988-2.684-34.522-5.99-48.606-15.86c-1.225-0.858-2.47-1.828-3.053-3.205c-0.941-2.222,0.1-4.741,1.134-6.922
	c1.461-3.084,2.933-6.164,4.415-9.238c1.921-3.984,3.907-8.032,6.971-11.222C168.371,334.766,168.986,333.651,173.417,331.469
	L173.417,331.469z"/>
<path style="fill:#3A556A;" d="M276.369,379.112c-0.37,1.164-0.872,2.271-1.584,3.272c-1.282,1.796-3.116,3.107-4.92,4.381
	c-2.303,1.623-4.605,3.247-6.909,4.875c-1.294,0.914-2.627,1.844-4.161,2.236c-3.598,0.919-6.868-1.226-10.048-3.479
	c-0.935-0.658-1.863-1.33-2.789-1.936c-0.144-0.094-0.293-0.188-0.437-0.282c-1.414-0.888-2.894-1.602-4.429-2.19
	c-6.725-2.57-14.431-2.639-21.654-3.915c-0.025-0.003-0.05-0.011-0.076-0.014c-12.216-2.18-23.59-8.083-35.888-9.722
	c-0.117-0.013-0.239-0.032-0.355-0.046c-2.072-0.262-4.153-0.406-6.237-0.52c-1.884-0.106-3.77-0.193-5.652-0.324
	c-2.817-0.197-5.632-0.498-8.43-0.904c-0.928-0.131-1.889-0.292-2.715-0.727c-0.116-0.065-0.233-0.13-0.343-0.204
	c-1.155-0.76-1.807-2.097-2.217-3.422c-1.324-4.294-0.577-9.176,1.973-12.878c1.563-2.275,2.591-3.518,4.189-4.201
	c2.486-1.062,4.732-2.64,6.556-4.627c1.66-1.815,3.726-3.306,5.874-4.524c0.639-0.365,1.292-0.708,1.952-1.035
	c2.947-1.488,6.038-2.702,8.96-4.245c2.67-1.412,5.19-3.088,7.753-4.687c1.504-0.942,3.025-1.855,4.598-2.681
	c4.065-2.118,8.35-3.552,12.769-4.481c5.585-1.167,11.381-1.527,17.229-1.437c1.405,0.016,2.811,0.063,4.216,0.13
	c4.961,0.236,9.928,0.729,14.799,1.259c2.916,0.317,5.851,0.651,8.755,1.121c4.913,0.792,9.735,1.975,14.198,4.138
	c3.399,1.645,6.731,4.101,7.883,7.695c0.62,1.931,0.549,3.999,0.462,6.025c-0.444,10.404-1.19,20.795-2.231,31.156
	C277.25,374.998,277.006,377.139,276.369,379.112z"/>
<g>
	<path style="fill:#E1E6E9;" d="M253.056,336.991l-5.952,2.037c-4.493,1.534-9.336-1.09-10.507-5.69l-0.395-1.555l-2.608-10.257
		l23.55,2.38l0.005,0.001l0.945,2.694c0.14,0.397,0.249,0.796,0.322,1.196C259.161,331.705,256.937,335.666,253.056,336.991z"/>
	<path style="fill:#E1E6E9;" d="M229.379,321.396l-0.301,2.645c-0.062,0.544-0.169,1.078-0.32,1.587
		c-1.269,4.395-5.558,7.358-10.253,6.823l-2.035-0.232c-2.798-0.319-4.841-2.731-4.747-5.503c0.006-0.144,0.017-0.287,0.033-0.429
		l0.394-3.454C217.734,321.666,223.53,321.306,229.379,321.396z"/>
	<path style="fill:#E1E6E9;" d="M194.069,341.456c-2.979,0.418-6.783,1.371-9.125,3.567c-1.257,1.176-3.139,1.368-4.591,0.451
		c-0.467-0.29-0.855-0.68-1.144-1.13c-0.294-0.451-0.488-0.962-0.57-1.508l-0.062-0.409l-0.508-3.5l16.713-8.932l1.78,5.361
		l0.445,1.344C197.72,338.852,196.32,341.145,194.069,341.456z"/>
	<path style="fill:#E1E6E9;" d="M176.883,371.773c-1.884-0.106-3.77-0.193-5.652-0.324c-2.817-0.197-5.632-0.498-8.43-0.904
		c-0.238-0.032-0.482-0.07-0.719-0.108c-0.692-0.125-1.383-0.297-1.996-0.619c-0.128-3.173-0.231-6.246-0.203-7.938
		c0.013-0.885,0.306-1.738,0.835-2.445c2.308-3.071,6.049-3.886,9.427-3.867c0.361,0,0.715,0.009,1.068,0.029
		c3.595,0.193,6.334,3.288,6.146,6.878L176.883,371.773z"/>
	<path style="fill:#E1E6E9;" d="M276.369,379.112c-0.37,1.164-0.872,2.271-1.584,3.272c-1.282,1.796-3.116,3.107-4.92,4.381
		c-2.303,1.623-4.605,3.247-6.909,4.875c-1.294,0.914-2.627,1.844-4.161,2.236c-3.264,0.834-6.256-0.852-9.155-2.857
		c-0.301-0.204-0.597-0.413-0.893-0.622c3.229-4.233,5.53-9.912,7.035-14.615c1.368-4.275,6.436-6.063,10.178-3.581l9.451,6.276
		L276.369,379.112z"/>
</g>
<g>
	<path style="fill:#D5D6DB;" d="M253.056,336.991l-5.952,2.037c-4.493,1.534-9.336-1.09-10.507-5.69l-0.395-1.555
		c2.407,0.218,4.846,0.614,6.759,2.048c0.599,0.444,1.144,0.991,1.832,1.286c1.204,0.513,2.58,0.15,3.838-0.217
		c0.773-0.226,1.54-0.448,2.313-0.674c0.522-0.152,1.061-0.312,1.49-0.644c0.571-0.44,0.891-1.13,1.403-1.638
		c0.511-0.503,1.423-0.776,1.914-0.251c0.413-1.045,1.441-2.829,2.665-3.896C259.161,331.705,256.937,335.666,253.056,336.991z"/>
	<path style="fill:#D5D6DB;" d="M228.758,325.627c-1.269,4.395-5.558,7.358-10.253,6.823l-2.035-0.232
		c-2.798-0.319-4.841-2.731-4.747-5.503c0.687-0.38,1.513-0.662,1.92-0.616c1.108-0.224,2.348-0.078,3.231,0.631
		c0.511,0.403,0.893,0.978,1.487,1.241c1.471,0.652,2.963-0.951,4.566-1.134c1.008-0.122,2.095,0.337,3.019-0.089
		c0.881-0.41,1.565-1.573,2.491-1.288C228.556,325.496,228.658,325.554,228.758,325.627z"/>
	<path style="fill:#D5D6DB;" d="M194.069,341.456c-2.979,0.418-6.783,1.371-9.125,3.567c-1.257,1.176-3.139,1.368-4.591,0.451
		c-0.467-0.29-0.855-0.68-1.144-1.13c-0.294-0.451-0.488-0.962-0.57-1.508l-0.062-0.409c0.708-0.203,1.496-0.242,2.212-0.15
		c1.412,0.181,2.948,0.671,4.174-0.05c0.597-0.355,1.009-0.941,1.494-1.443c1.074-1.104,2.583-1.777,4.121-1.844
		c1.181-0.051,2.562,0.173,3.381-0.681c0.351-0.367,0.521-0.863,0.772-1.303c0.365-0.628,1.064-1.239,1.831-1.6l0.445,1.344
		C197.72,338.852,196.32,341.145,194.069,341.456z"/>
	<path style="fill:#D5D6DB;" d="M170.145,355.568c-0.216,1.578-1.334,3.388-2.249,3.953c-0.427,0.266-0.914,0.426-1.346,0.687
		c-0.515,0.317-0.943,0.768-1.326,1.24c-1.896,2.309-3.01,5.253-3.118,8.239c-0.007,0.247-0.01,0.499-0.024,0.75
		c-0.692-0.125-1.383-0.297-1.996-0.619c-0.128-3.173-0.231-6.246-0.203-7.938c0.013-0.885,0.306-1.738,0.835-2.445
		C163.026,356.365,166.767,355.549,170.145,355.568z"/>
	<path style="fill:#D5D6DB;" d="M275.411,378.477c-0.789,0.544-1.564,1.11-2.425,1.517c-0.229,0.108-0.472,0.209-0.723,0.196
		c-0.389-0.024-0.707-0.307-1.009-0.553c-0.867-0.712-1.866-1.259-2.935-1.597c-0.781-0.249-1.671-0.443-2.112-1.132
		c-0.188-0.295-0.266-0.649-0.449-0.948c-0.634-1.036-2.145-0.981-3.313-0.676c-1.179,0.309-2.316,0.746-3.399,1.298
		c-0.563,0.286-1.122,0.619-1.48,1.14c-0.548,0.788-0.507,1.823-0.671,2.768c-0.281,1.648-1.21,3.108-2.175,4.477
		c-1.229,1.741-2.549,3.419-3.948,5.027c-0.349,0.393-0.745,0.703-1.132,1.025c-0.301-0.204-0.597-0.413-0.893-0.622
		c3.229-4.233,5.53-9.912,7.035-14.615c1.368-4.275,6.436-6.063,10.178-3.581L275.411,378.477z"/>
</g>
<g>
	<path style="fill:#E56353;" d="M247.305,361.455c-1.06-1.734-2.719-3-4.347-4.221c-2.146-1.61-4.331-3.235-6.832-4.21
		c-2.393-0.932-4.971-1.236-7.518-1.532c-11.508-1.342-23.505-2.632-34.399,1.31c-3.661,1.33-7.269,3.376-9.297,6.706
		c-2.276,3.744-2.16,8.374-1.792,12.786c0.117,0.013,0.238,0.032,0.356,0.046c0.139,0.018,0.277,0.043,0.415,0.062
		c-0.441,0.471-0.614,1.165-0.703,1.822c-0.235,1.724-0.576,4.112,0.249,5.723c0.852,1.665,2.465,2.37,3,4.39
		c0.486,1.838,0.34,15.463,0.19,17.358c-0.262,3.305-0.523,6.61-0.785,9.915c-0.117,1.474-0.225,3.013,0.629,4.323
		c0.408,0.625,1.06,1.094,1.801,1.18c1.861,0.216,2.89-1.747,3.319-3.441c0.399-1.576,0.786-3.415,2.232-4.157
		c1.433,0.293,0.077,3.183,1.621,3.706c0.743,0.252,1.531-0.277,1.712-1.041c0.494-2.086,1.653-6.978,2.391-10.094
		c0.198-0.836,1.375-0.805,1.56,0.034c0.41,1.867,0.481,3.808,0.195,5.698c0.845-0.54,1.598-1.22,2.23-1.998
		c0.882-1.087,2.639-0.502,2.698,0.897c0.123,2.962-0.666,6.142-0.493,9.16c0.041,0.722,0.164,1.503,1.002,1.843
		c0.556,0.225,1.204,0.105,1.693-0.244c1.026-0.735,1.269-2.002,1.44-3.185c0.558-3.854,0.794-7.754,0.708-11.647
		c-0.02-0.891,1.211-1.134,1.533-0.303l0.358,0.926c1.586-0.758,2.887-2.094,3.604-3.698c0.973-0.204,1.433,1.152,1.468,2.146
		l0.196,5.525c0.061,1.709,2.327,2.383,3.231,0.932c0.627-1.006,1.02-2.161,1.113-3.338c0.059-0.751,1.13-0.856,1.366-0.141
		c0.217,0.658,0.309,1.407,0.364,2.084c0.135,1.648,0.773,3.741,2.647,3.529c1.009-0.114,1.818-0.915,2.061-1.901
		c1.067-4.33,5.721-24.303,7.744-23.844c3.27,0.738,6.403,1.827,9.259,3.621c0.144,0.094,0.293,0.188,0.437,0.282
		c1.473-5.464,2.021-11.178,2.563-16.836C248.849,368.164,249.121,364.424,247.305,361.455z"/>
	<path style="fill:#E56353;" d="M196.198,420.096c1.954-0.256,4.004,0.318,5.541,1.552c1.328,1.066,2.239,2.553,3.123,4.008
		c0.322,0.529,0.653,1.089,0.678,1.708c0.051,1.254-1.14,2.195-2.294,2.687c-1.154,0.493-2.465,0.816-3.271,1.777
		c-0.59,0.703-0.819,1.654-1.403,2.363c-1.146,1.391-3.223,1.436-5.025,1.366c-1.901-0.075-4.15-0.331-4.628-2.61
		c-0.095-0.452-0.085-0.922-0.038-1.381c0.306-2.97,1.926-4.754,3.919-6.668c0.88-0.846,1.295-0.95,1.815-2.041
		C195.183,421.666,194.214,420.356,196.198,420.096z"/>
	<path style="fill:#E56353;" d="M166.008,386.384c-1.954-0.256-4.004,0.318-5.541,1.552c-1.328,1.066-2.239,2.553-3.123,4.008
		c-0.322,0.529-0.653,1.089-0.678,1.708c-0.051,1.254,1.14,2.194,2.294,2.687c1.154,0.493,2.465,0.816,3.271,1.777
		c0.59,0.703,0.819,1.654,1.403,2.363c1.146,1.391,3.223,1.436,5.025,1.366c1.901-0.075,4.15-0.331,4.628-2.61
		c0.095-0.452,0.085-0.922,0.038-1.381c-0.306-2.97-1.926-4.754-3.919-6.668c-0.88-0.846-1.295-0.95-1.815-2.041
		C167.023,387.955,167.992,386.644,166.008,386.384z"/>
	<path style="fill:#E56353;" d="M247.751,402.218c1.954-0.256,4.004,0.318,5.541,1.552c1.328,1.066,2.239,2.553,3.123,4.008
		c0.322,0.529,0.653,1.089,0.678,1.708c0.051,1.254-1.14,2.195-2.294,2.687c-1.154,0.493-2.465,0.816-3.271,1.777
		c-0.59,0.703-0.819,1.654-1.403,2.363c-1.146,1.391-3.223,1.437-5.025,1.366c-1.901-0.075-4.15-0.331-4.628-2.61
		c-0.095-0.452-0.085-0.922-0.038-1.381c0.306-2.97,1.926-4.754,3.919-6.668c0.88-0.846,1.295-0.95,1.815-2.041
		C246.736,403.788,245.767,402.478,247.751,402.218z"/>
</g>
<path style="fill:#D15241;" d="M245.959,388.461c-0.144-0.094-0.293-0.188-0.437-0.282c-2.856-1.794-5.989-2.883-9.259-3.621
	c1.213-2.953,2.73-5.779,3.893-8.754c1.651-4.228,2.563-8.699,3.466-13.141c0.071-0.353,0.14-0.731,0.008-1.061
	c-0.133-0.324-0.433-0.544-0.719-0.747c-1.35-0.952-2.699-1.905-4.049-2.857c-2.599-1.832-5.611-3.757-8.718-3.08
	c-2.779,0.601-4.834,3.174-7.625,3.702c-2.969,0.553-6.65-1.149-8.719,1.047c-0.498,0.531-0.822,1.241-1.438,1.634
	c-0.788,0.498-1.809,0.325-2.728,0.153c-2.931-0.55-5.951-0.905-8.885-0.389c-2.939,0.515-5.813,1.996-7.462,4.483
	c-1.088,1.632-1.568,3.475-1.924,5.362c-0.294,1.557-1.805,2.55-3.355,2.219c-1.499-0.32-3.009-0.588-4.533-0.79
	c-0.117-0.013-0.239-0.032-0.355-0.046c-0.368-4.411-0.485-9.042,1.792-12.786c2.028-3.329,5.637-5.376,9.297-6.706
	c10.894-3.942,22.892-2.652,34.399-1.31c2.548,0.296,5.126,0.6,7.518,1.532c2.501,0.976,4.686,2.6,6.832,4.21
	c1.628,1.221,3.287,2.487,4.347,4.221c1.815,2.969,1.544,6.71,1.216,10.171C247.98,377.284,247.432,382.997,245.959,388.461z"/>
<path style="fill:#E56353;" d="M231.493,435.212c-1.174-0.691-2.645-0.657-3.974-0.355c-1.329,0.302-2.594,0.848-3.928,1.127
	c-1.121,0.234-2.275,0.277-3.402,0.479c-2.089,0.375-4.038,1.289-5.958,2.194c-2.484,1.17-9.689,4.374-4.11,6.219
	c3.185,1.053,6.099-0.13,8.761-1.877c2.334-1.532,3.968-2.391,6.824-2.684C227.297,440.153,236.011,437.871,231.493,435.212z"/>
<g>
	<path style="fill:#31978C;" d="M360.462,314.43l-3.155,6.624c-1.077,2.287-1.778,4.633-2.154,7.004
		c-3.965,25.101-15.476,48.408-34.158,65.645c-4.124,3.79-8.381,7.429-12.889,10.802c-6.478,4.858-13.081,9.182-19.124,14.625
		c-5.392,4.858-10.276,10.243-15.117,15.643c-9.049,10.092-17.689,19.775-29.534,26.445c-0.142,0.083-0.267,0.15-0.367,0.209
		c-0.676,0.326-1.352,0.634-2.02,0.943c-0.359,0.167-0.71,0.334-1.068,0.501c-4.741,2.229-9.742,3.873-14.875,4.9
		c-5.059,1.002-10.159,0.534-16.036-1.177c-14.283-4.174-26.495-13.531-34.667-25.969l-0.793-1.202
		c21.595,4.157,42.723,16.069,63.692,10.117c16.537-4.691,27.939-19.283,39.184-32.288c1.786-2.062,3.631-4.14,5.935-5.61
		c1.761-1.127,3.74-1.87,5.551-2.922c6.778-3.932,10.318-11.612,15.702-17.305c6.97-7.379,17.087-11.453,23.24-19.525
		c3.389-4.441,5.334-9.792,7.229-15.051c1.035-2.863,2.062-5.726,3.097-8.59c6.286-17.455,12.58-34.91,18.014-52.648
		c5.543-18.056,10.217-36.471,12.196-55.253c1.928-18.256,1.302-36.679,0.676-55.019c-0.225-6.611-0.459-13.264-1.903-19.709
		c-3.322-14.767-12.747-27.171-23.373-37.556c-7.029-6.862-25.302-18.64-22.238-29.859c1.169-4.257,5.025-7.179,9.358-8.373
		c8.857,7.955,16.82,17.146,23.64,27.53c7.797,11.87,13.565,24.508,17.405,37.522c4.082,13.815,4.316,28.24,6.428,42.489
		l2.613,17.789c-1.169,17.538-2.346,35.077-3.523,52.606c-0.275,4.257-0.568,8.54-1.653,12.672c-1.06,4.049-2.88,7.872-4.683,11.645
		c-2.521,5.301-5.034,10.601-7.555,15.894L360.462,314.43"/>
	<path style="fill:#31978C;" d="M135.569,379.946c-10.351-17.029-17.839-35.619-22.939-54.927
		c-1.528-5.776-4.616-11.553-7.571-17.413c-5.718-11.353-11.478-22.814-14.734-35.102c-2.429-9.149-6.085-17.663-8.94-26.504
		c-1.018-3.155-1.937-6.361-2.663-9.65c-0.142-0.651-0.275-1.302-0.401-1.953c-0.192-0.993-0.367-1.978-0.534-2.972
		c-0.451-2.613-0.826-5.226-1.119-7.855c-0.242-2.112-0.442-4.224-0.584-6.336c-0.2-2.913-0.317-5.818-0.342-8.732
		c-0.033-2.554,0.017-5.117,0.134-7.68c0.075-1.903,0.2-3.798,0.359-5.693c0.175-2.17,0.401-4.341,0.668-6.503
		c0.284-2.212,0.618-4.416,1.002-6.611c2.463-14.299,7.02-28.298,13.565-41.529c7.212-2.262,13.356-2.563,12.697,3.189
		c-0.484,4.232-8.79,11.987-11.361,15.41c-4.441,5.885-9.308,11.703-11.127,19.024c-1.152,4.633-0.985,9.491-0.801,14.266
		c0.267,7.162,0.534,14.324,0.81,21.495c0.334,8.94,0.676,17.956,2.788,26.654c2.296,9.5,6.636,18.365,11.019,27.105
		c3.114,6.219,6.277,12.421,9.475,18.598c5.059,9.792,10.268,19.592,17.171,28.173c1.619,2.012,3.389,3.99,5.71,5.1
		c1.311,0.634,2.83,1.01,3.773,2.12c0.943,1.119,1.06,2.696,1.043,4.149c-0.125,11.169-5.342,22.714-1.26,33.107
		c0.86,2.204,2.112,4.232,2.897,6.461c1.002,2.847,1.21,5.893,1.402,8.907C135.82,376.056,135.82,378.043,135.569,379.946z"/>
</g>
<path style="fill:#2F4859;" d="M359.262,96.499c-3.45-5.208-7.712-9.985-9.976-15.807c-2.949-7.581-2.421-16.681-7.559-22.987
	c-3.588-4.404-9.718-6.571-15.276-5.401c-3.475,0.732-6.778,2.656-10.318,2.38c-6.759-0.528-10.157-8.231-12.127-14.719
	c-2.287-7.531-4.574-15.063-6.861-22.594c-0.199-0.656-1.061-0.806-1.47-0.254l-18.342,24.77c-0.271,0.366-0.79,0.454-1.161,0.189
	c-12.086-8.653-18.22-24.623-15.873-39.213c0.377-2.341-2.433-3.812-4.129-2.156l-23.228,22.681c-0.379,0.37-1.007,0.301-1.286-0.15
	c-1.07-1.731-2.441-3.275-4.033-4.542c-0.32-0.255-0.786-0.229-1.087,0.048c-5.059,4.654-9.685,9.778-13.802,15.283
	c-0.258,0.345-0.731,0.434-1.097,0.207c-6.969-4.339-14.376-7.973-22.074-10.827c-1.532-0.568-3.28-1.097-4.746-0.374
	c-1.176,0.58-1.851,1.82-2.452,2.985L171.804,46.49c-1.123,2.176-2.332,4.451-4.386,5.785c-2.721,1.767-6.242,1.473-9.467,1.114
	c-8.4-0.936-16.801-1.872-25.201-2.808c-0.759-0.085-1.211,0.799-0.714,1.379c2.23,2.604,2.398,7.192,0.457,10.301
	c-2.552,4.088-7.277,6.179-11.722,8.04c-6.891,2.885-13.782,5.77-20.673,8.655c-0.821,0.344-0.606,1.563,0.284,1.604l11.659,0.541
	c0.732,0.034,1.069,0.927,0.541,1.435c-12.099,11.653-24.697,23.375-40.021,29.99c-0.772,0.333-0.627,1.463,0.204,1.587l13.948,2.07
	c0.499,0.074,0.821,0.565,0.682,1.049c-1.522,5.328-4.855,15.772-4.837,17.143c0.108,8.301-2.023,15.48-5.451,22.004
	c-0.418,0.795,0.536,1.597,1.245,1.046c1.815-1.412,3.612-2.787,5.4-4.064c0.651-0.464,1.518,0.164,1.286,0.929
	c-2.529,8.342-3.955,12.163-5.222,17.886c-0.201,0.907,0.996,1.414,1.51,0.64c11.745-17.653,26.591-30.15,41.07-45.944
	c0.54-0.589,1.518-0.165,1.454,0.632c-0.238,2.936-0.632,5.859-1.181,8.753c-0.147,0.774,0.766,1.297,1.362,0.782l58.125-50.168
	c0.647-0.558,1.615,0.1,1.334,0.907l-9.668,27.721c-0.262,0.75,0.574,1.407,1.241,0.976l18.224-11.766
	c0.611-0.395,1.406,0.129,1.281,0.846c-1.359,7.776-3.026,15.496-4.951,23.151c0.585-0.089,1.19-0.149,1.834-0.149
	c3.127,0,25.328-19.5,25.328-19.5c0.478-0.59,1.438-0.287,1.488,0.471c0.934,14.213,1.253,28.466,0.955,42.706
	c-0.015,0.737,0.861,1.137,1.4,0.633c8.587-8.029,16.027-17.283,22.022-27.395c0.321-0.542,1.096-0.55,1.42-0.011
	c1.852,3.087,5.564,5.796,7.306,1.889c0.024-0.09,0.049-0.182,0.073-0.272c1.053-9.616,1.497-19.298,1.331-28.97
	c-0.01-0.557,0.517-0.97,1.054-0.821c9.952,2.762,19.618,6.556,28.791,11.302c0.403,0.209,0.897,0.058,1.113-0.342l11.519-21.35
	c0.258-0.478,0.898-0.591,1.301-0.227c8.236,7.439,15.516,15.937,21.601,25.218c1.005,1.532,2.022,3.132,3.551,4.141
	c1.803,1.19,4.054,1.391,6.166,1.847c3.736,0.806,7.27,2.525,10.225,4.948c0.621,0.509,1.531-0.063,1.336-0.842
	c-1.498-6.01-3.781-11.824-6.771-17.249c-0.421-0.763,0.459-1.571,1.185-1.088c11.574,7.69,18.406,19.234,28.605,28.999
	c0.528,0.505,1.406,0.123,1.403-0.608C363.814,120.427,365.476,105.88,359.262,96.499z"/>
<path style="fill:#3A556A;" d="M102.152,122.6c-0.478-3.045-0.973-6.193-0.786-7.871c0.019-0.172,0.04-0.309,0.059-0.415
	c0.45-0.275,1.244-0.678,1.911-1.017c0.344-0.174,0.702-0.356,1.072-0.547c6.375-3.297,12.763-7.08,19.529-11.563
	c1.785-1.183,7.215-4.782,7.273-11.259c0.011-1.243-0.185-2.336-0.436-3.259c-0.219-0.806,0.166-1.65,0.929-1.989
	c0.534-0.237,1.165-0.471,1.889-0.669c4.151-1.138,13.52-3.707,15.769-12.179c0.167,0.022,0.324,0.044,0.467,0.065
	c1.622,0.236,3.286,0.356,4.947,0.356c14.532,0,28.146-8.768,34.117-21.649c0.349-0.753,1.216-1.115,2.013-0.881
	c2.499,0.735,4.872,1.887,6.995,3.408c0.199,0.142,0.397,0.288,0.595,0.434c1.518,1.116,3.598,2.644,6.433,3.386
	c1.118,0.293,2.269,0.441,3.421,0.441c7.255,0,12.696-5.616,15.368-10.872c0.653-1.284,1.192-2.535,1.714-3.744
	c0.007-0.018,0.015-0.035,0.022-0.052l1.853,1.403c1.142,0.864,3.517,2.662,6.921,2.79c0.127,0.005,0.252,0.007,0.375,0.007
	c3.169,0,5.526-1.495,6.658-2.214l5.28-3.352c0.707-0.449,1.648-0.323,2.182,0.321c1.735,2.091,3.288,4.956,4.808,7.76
	c0.475,0.876,0.946,1.745,1.423,2.595c2.598,4.635,9.879,15.416,21.358,15.416c1.403,0,2.811-0.172,4.184-0.512
	c2.101-0.52,4.085-1.419,5.98-2.716c0.635-0.434,1.477-0.36,2.058,0.143c6.855,5.928,15.954,9.436,25.061,9.436
	c2.447,0,4.879-0.25,7.229-0.742c0,0,0.706-0.152,0.77-0.165c0.141,0.201,0.282,0.405,0.4,0.577
	c2.691,3.912,5.641,7.595,8.836,11.036c-0.229,0.006-0.457,0.014-0.686,0.024c-2.654,0.122-5.784,1-8.485,2.696
	c-0.558,0.35-1.269,0.322-1.814-0.048c-7.14-4.849-14.719-9.058-22.599-12.547c-2.127-0.942-4.651-1.946-7.709-1.946
	c-0.236,0-0.473,0.006-0.71,0.019c-6.364,0.335-11.842,5.205-14.296,12.71c-0.002,0.007-0.004,0.013-0.006,0.02
	c-0.322,0.988-1.426,1.457-2.361,1.003c-6.096-2.958-12.543-5.088-19.252-6.357c-1.14-0.216-2.659-0.463-4.299-0.463
	c-2.395,0-4.579,0.528-6.489,1.57c-2.536,1.384-4.526,3.607-6.083,6.796c-3.04,6.228-3.43,12.857-3.775,18.706
	c-0.055,0.935-0.109,1.868-0.175,2.797c-1.287-4.114-2.438-8.264-3.443-12.422c-0.075-0.311-0.235-0.599-0.467-0.819
	c-4.643-4.391-10.321-4.659-14.297-1.701c-0.203,0.151-0.405,0.302-0.606,0.455c-0.778,0.589-1.882,0.391-2.42-0.422
	c-1.777-2.685-4.828-4.463-8.275-4.463c-0.823,0-1.645,0.103-2.446,0.306l-1.04,0.265c-0.201-4.243-0.712-8.469-1.528-12.63
	c-0.241-1.228-0.975-4.967-4.525-7.215c-1.546-0.98-3.322-1.478-5.276-1.478c-0.801,0-1.491,0.084-2.003,0.156
	c-11.247,1.593-21.992,7.411-33.814,18.309c-2.961,2.729-5.806,5.575-8.558,8.327c-3.625,3.626-7.098,7.099-10.741,10.253
	c-0.435,0.377-1.039,0.517-1.586,0.337c-1.36-0.447-2.81-0.684-4.28-0.684c-1.09,0-2.17,0.13-3.208,0.386
	c-4.517,1.116-7.678,4.124-9.77,6.114l-11.516,10.955C102.247,123.204,102.199,122.9,102.152,122.6z"/>
<g>
	<path style="fill:#31978C;" d="M226.589,193.28c0.264,9.867-1.285,17.656,1.804,26.194s9.466,15.718,12.594,24.218
		c1.24,3.371,1.46,7.625,2.813,10.882c1.908,4.593,2.504,8.679,5.134,12.233c-1.463,1.177-3.193-0.197-4.579-1.595
		c-10.107-10.197-19.331-24.205-23.192-42.353c-2.073-9.743,1.519-18.551,1.11-28.826c-0.179-4.488-0.355-9.038,0.198-13.446
		c0.697-5.546,2.445-10.863,4.188-15.732c1.084-3.028,2.873-8.631,3.791-2.658c0.672,4.375-1.679,10.067-2.418,14.17
		C227.043,181.856,226.436,187.549,226.589,193.28z"/>
	<path style="fill:#31978C;" d="M205.155,203.761c2.033,7.963,3.942,16.804,3.084,25.585c-0.752,7.704-3.499,13.911-6.138,19.705
		c-2.337,5.131-5.174,10.69-8.63,10.245c-0.393-1.257,0.006-2.876,0.408-4.121c3.191-9.869,7.047-19.398,8.227-30.922
		c1.027-10.032-0.126-20.526-2.117-29.959c-1.08-5.12-2.405-10.008-3.774-14.836c-1.096-3.865-3.353-9.184-3.605-13.496
		C195.548,163.94,203.794,198.426,205.155,203.761z"/>
</g>
<path style="fill:#3EA69B;" d="M241.264,282.76c-2.871-4.173-5.852-8.454-10.097-11.216c-2.336-1.52-4.968-2.517-7.593-3.454
	c-4.081-1.456-8.247-2.805-12.561-3.213c-4.314-0.408-8.832,0.186-12.558,2.398c-3.954,2.347-6.715,6.326-8.511,10.559
	c-0.583,1.374-1.085,2.836-0.985,4.326c0.124,1.853,1.171,3.527,2.428,4.894c1.754,1.907,3.979,3.378,6.421,4.246
	c2.346,0.833,4.848,1.108,7.326,1.342c5.943,0.562,11.992,0.924,17.835-0.294l14.195-3.334c1.305,2.034,4.999,1.588,5.783-0.697
	C243.598,286.413,242.404,284.417,241.264,282.76z"/>
<path style="fill:#31978C;" d="M194.403,285.606c0.508-0.353,1.028-0.713,1.545-1.064c3.405-2.37,6.824-4.715,10.236-7.072
	c0.652-0.447,1.307-0.904,1.958-1.35c1.576-1.097,3.212-2.217,5.095-2.62c1.832-0.407,3.749-0.082,5.591,0.283
	c2.465,0.501,4.94,1.111,7.274,2.047c1.632,0.64,3.186,1.436,4.621,2.449c3.49,2.456,6.16,6.405,6.139,10.672
	c0.003,0.444-0.031,0.908-0.254,1.295c-0.407,0.721-1.305,0.967-2.108,1.147c-3.591,0.816-7.174,1.644-10.765,2.46
	c-1.044,0.244-2.095,0.476-3.14,0.72c-1.984,0.457-3.99,0.917-6.014,0.876c-1.701-0.028-3.37-0.405-5.011-0.805
	c-0.364-0.089-0.727-0.177-1.088-0.275c-4.513-1.129-8.958-2.481-13.345-4.026c-1.43-0.505-3.166-1.641-2.67-3.074
	c0.216-0.61,0.802-1.014,1.351-1.365c0.706-0.452,1.415-0.913,2.131-1.362c1.076-0.699,2.159-1.385,3.244-2.081"/>
<g>
	<path style="fill:#2F4859;" d="M236.608,290.246c-0.407,0.721-1.305,0.967-2.108,1.147c-3.591,0.816-7.174,1.644-10.765,2.46
		c-1.473-1.204-2.668-2.767-3.231-4.572c-1.028-3.307,0.164-6.977,2.251-9.734c0.819-1.072,2.025-2.48,3.347-3.717
		c1.632,0.64,3.186,1.436,4.621,2.449c3.49,2.456,6.16,6.405,6.139,10.672C236.865,289.395,236.83,289.859,236.608,290.246z"/>
	<path style="fill:#2F4859;" d="M209.954,292.671c-0.289,0.715-0.817,1.273-1.472,1.698c-4.512-1.129-8.958-2.481-13.345-4.026
		c-1.43-0.505-3.166-1.641-2.67-3.074c0.216-0.61,0.802-1.014,1.351-1.365c0.706-0.452,1.415-0.913,2.131-1.362
		c3.405-2.37,6.824-4.715,10.236-7.072c1.147,3.648,2.29,7.274,3.449,10.916C210.076,289.786,210.51,291.32,209.954,292.671z"/>
</g>
<g>
	<path style="fill:#3EA69B;" d="M294.723,292.009c-14.44-0.48-26.596-5.181-31.051-11.344c-0.721-0.998-2.264-0.751-2.676,0.409
		c-0.264,0.743-0.414,1.507-0.44,2.289c-0.287,8.633,14.428,16.128,32.868,16.742c18.439,0.613,33.62-5.888,33.907-14.521
		c0-0.011,0.001-0.022,0.001-0.033c0.037-1.291-1.532-1.996-2.508-1.15C319.158,289.319,307.758,292.443,294.723,292.009z"/>
	<path style="fill:#3EA69B;" d="M296.296,140.541c1.665,0.202,3.356,0.488,5.008,0.196c1.746-0.309,3.307-1.24,4.934-1.945
		c4.107-1.781,8.702-2.139,13.173-1.906c13.793,0.717,26.691,6.729,39.108,12.776c1.118,0.545,2.339,1.204,2.734,2.383
		c0.391,1.168-0.175,2.428-0.81,3.484c-1.824,3.034-4.343,5.647-7.309,7.581c-1.046,0.682-2.291,1.529-2.243,2.777
		c0.045,1.174,1.22,1.933,2.258,2.484c4.931,2.619,9.862,5.237,14.793,7.856c0.861,0.457,1.856,1.158,1.726,2.124
		c-0.081,0.602-0.589,1.043-1.062,1.425c-2.162,1.745-4.325,3.49-6.487,5.235c-0.449,0.362-0.937,0.799-0.955,1.376
		c-0.019,0.594,0.468,1.068,0.921,1.453c3.41,2.898,7.079,5.49,10.95,7.735c-5.358,2.762-10.717,5.523-16.075,8.285
		c4.466,1.992,8.933,3.984,13.399,5.975c-1.822,1.081-3.645,2.162-5.467,3.243c-0.485,0.288-0.992,0.598-1.26,1.094
		c-1.171,2.165,2.875,3.345,4.011,5.529c-4.558,2.429-9.122,4.846-13.692,7.251c4.781,2.455,9.561,4.909,14.342,7.364
		c-5.942,1.321-11.883,2.641-17.825,3.962c-1.338,0.297-2.906,0.801-3.28,2.119c-0.313,1.105,0.395,2.216,1.067,3.147
		c2.227,3.083,4.453,6.167,6.68,9.25c-4.932,3.196-11.384,2.866-16.724,5.322c-5.024,2.31-8.646,6.88-13.387,9.726
		c-3.84,2.306-8.274,3.398-12.665,4.283c-9.874,1.988-19.929,3.078-29.999,3.251c-7.582,0.13-16.211-0.768-20.806-6.8
		c-1.464-1.922-2.451-4.304-4.446-5.668c-3.826-2.615-9.414-0.291-13.48-2.513c-3.13-1.71-4.361-5.568-4.789-9.109
		c-0.429-3.541-0.379-7.278-2.052-10.429c-1.411-2.655-3.881-4.563-5.753-6.916c-3.937-4.951-5.016-11.7-4.289-17.983
		c0.727-6.284,3.08-12.248,5.411-18.129c1.193-3.01-1.532-9.225,0.247-11.93c2.785-4.237,7.004-7.763,8.143-12.703
		c1.475-6.401,2.127-9.33,6.904-14.826c3.074-3.537,7.525-5.273,11.543-7.394C271.068,144.494,281.837,138.79,296.296,140.541z"/>
</g>
<circle style="fill:#31978C;" cx="290.903" cy="210.232" r="56.507"/>
<path style="fill:#EBF0F3;" d="M327.173,186.418c13.159,20.038,7.572,46.945-12.453,60.095c-4.045,2.657-8.364,4.544-12.798,5.694
	c-17.523,4.633-36.794-2.154-47.297-18.147c-13.15-20.024-7.585-46.936,12.453-60.095c1.624-1.066,3.305-2.015,5.016-2.83
	l0.014-0.009C291.405,161.823,315.098,168.03,327.173,186.418z"/>
<path style="fill:#E1E6E9;" d="M267.99,240.349c-13.15-20.024-7.585-46.936,12.453-60.095c1.624-1.066,3.305-2.015,5.016-2.83
	l0.014-0.009c9.682-4.667,20.469-5.429,30.341-2.709c-12.621-8.837-29.374-10.49-43.706-3.581l-0.014,0.009
	c-1.712,0.814-3.393,1.763-5.016,2.83c-20.038,13.159-25.603,40.071-12.453,60.095c6.019,9.166,14.921,15.301,24.722,18.002
	C274.976,249,271.097,245.081,267.99,240.349z"/>
<path style="fill:#D5D6DB;" d="M327.173,186.418c13.159,20.038,7.572,46.945-12.453,60.095c-4.045,2.657-8.364,4.544-12.798,5.694
	c1.739-0.832,3.429-1.768,5.079-2.851c20.038-13.159,25.603-40.071,12.444-60.109c-10.502-15.993-29.769-22.744-47.337-18.12
	C291.405,161.823,315.098,168.03,327.173,186.418z"/>
<circle style="fill:#E56353;" cx="284.909" cy="220.104" r="19.881"/>
<circle style="fill:#3A556A;" cx="284.909" cy="220.104" r="8.098"/>
<circle style="fill:#EBF0F3;" cx="276.873" cy="222.595" r="4.858"/>
<path style="fill:#3A556A;" d="M248.544,158.134c0.735,1.644,1.811,3.114,3.272,4.249c2.546,1.995,5.81,2.78,9.007,3.222
	c7.271,1.002,14.75,0.467,21.812-1.561c2.863-0.818,5.651-1.887,8.548-2.596c13.406-3.272,27.614,1.452,39.417,8.615
	c0.083-0.275,0.142-0.559,0.175-0.835c0.401-3.005-1.778-5.943-3.873-8.281c-4.583-5.117-9.483-10.059-15.31-13.707
	c-5.484-3.439-11.144-4.942-17.505-5.559c0.083-2.571,8.047-4.925,10.259-5.802c-6.686-2.621-14.082,0.71-20.477,3.965
	c2.73-1.494,4.983-3.848,6.369-6.645c-5.751,0.559-11.495,1.119-17.246,1.67c-3.347,0.326-7.171,0.952-9.232,3.406
	c1.486-2.179,2.98-4.349,4.474-6.536c-1.144,0.376-2.287,0.743-3.414,1.152c-6.177,2.237-12.221,5.843-15.451,11.561
	C247.058,148.568,246.657,153.935,248.544,158.134z"/>
<path style="fill:#2F4859;" d="M248.544,158.134c0.735,1.644,1.811,3.114,3.272,4.249c2.546,1.995,5.81,2.78,9.007,3.222
	c7.271,1.002,14.75,0.467,21.812-1.561c2.863-0.818,5.651-1.887,8.548-2.596c13.406-3.272,27.614,1.452,39.417,8.615
	c0.083-0.275,0.142-0.559,0.175-0.835c-0.751-0.551-1.544-1.035-2.321-1.444c-2.371-1.269-4.95-2.095-7.396-3.222
	c-8.055-3.698-14.7-10.518-23.331-12.538c-3.464-0.81-7.062-0.785-10.626-0.76c-5.593,0.033-11.253,0.083-16.703,1.336
	c-1.695,0.392-3.397,0.902-5.134,0.818c-2.379-0.117-4.591-1.344-6.97-1.436c-1.077-0.042-2.229,0.2-2.98,0.968
	c-0.76,0.76-0.91,2.162-0.109,2.88c-1.352,0.134-2.713,0.267-4.065,0.392c-0.442,0.042-0.902,0.092-1.286,0.317
	c-0.426,0.242-0.71,0.676-0.977,1.085C248.769,157.792,248.661,157.967,248.544,158.134z"/>
<path style="fill:#3EA69B;" d="M205.331,189.955c-1.447,5.509-1.82,11.361-1.081,17.029c0.137,1.035,0.305,2.112-0.038,3.089
	c-0.845,2.446-4.112,2.596-5.581,4.658c-2.025,2.847,0.503,6.979-0.061,10.535c-0.495,3.089-3.167,5.059-5.094,7.379
	c-2.52,3.055-3.914,7.196-3.799,11.311c0.03,1.027,0.129,2.129-0.343,3.013c-0.388,0.743-1.112,1.194-1.827,1.544
	c-5.809,2.83-12.738,1.144-18.692,3.589c-2.383,0.977-4.515,2.579-6.86,3.681c-8.284,3.873-17.862,0.876-26.078-3.164
	c-8.223-4.049-16.347-9.216-25.347-9.708c-4.729-0.259-9.436,0.795-14.119,2.018c-2.187,0.571-4.199-1.44-3.596-3.618
	c1.031-3.726,3.191-8.131,4.573-9.585c-2.718-0.868-5.497-0.801-8.299-0.3c-0.411-2.613,4.652-9.508,7.5-10.268
	c-2.711-1.987-5.969-2.738-9.053-3.923c-0.183-2.913,7.949-7.705,11.954-6.486c-2.048-5.317-7.104-7.513-12.144-9.925
	c0.069-1.903,3.411-5.576,4.949-5.518c1.249,0.042,2.787-0.092,3.312-1.336c0.761-1.811-1.416-3.356-3.152-3.94
	c-1.393-0.467-2.779-0.935-4.172-1.402c0.259-2.212,8.132-5.084,11.581-4.04c-0.982-0.292-3.297-4.216-4.264-5.1
	c-1.599-1.452-3.411-2.538-5.155-3.706c3.442-1.953,8.672,1.002,12.708-0.559c1.454-0.568,2.794-1.452,4.112-2.329
	c4.066-2.705,8.124-5.401,12.19-8.097c2.718-1.811,5.459-3.631,7.896-5.877c4.058-3.748,7.249-8.656,11.794-11.662
	c5.315-3.506,11.786-3.982,17.977-4.307c4.431-0.225,9.342-0.25,12.662,2.963c2.299,2.237,3.457,5.726,6,7.613
	c4.096,3.03,9.776,0.668,14.467,2.354c4.69,1.686,7.515,7.363,7.446,12.763c-0.023,1.67-0.259,3.389,0.274,4.942
	c1.302,3.807,6.35,4.566,7.926,8.239C206.968,184.346,206.032,187.284,205.331,189.955z"/>
<circle style="fill:#31978C;" cx="152.039" cy="203.676" r="40.979"/>
<path style="fill:#EBF0F3;" d="M178.357,186.371c9.546,14.537,5.493,34.057-9.034,43.597c-2.935,1.927-6.068,3.296-9.285,4.131
	c-12.712,3.361-26.693-1.563-34.312-13.165c-9.54-14.527-5.503-34.05,9.034-43.597c1.178-0.774,2.397-1.462,3.639-2.053l0.01-0.006
	C152.409,168.528,169.597,173.031,178.357,186.371z"/>
<path style="fill:#E1E6E9;" d="M133.331,227.695c-9.54-14.527-5.503-34.05,9.034-43.597c1.178-0.774,2.397-1.462,3.639-2.053
	l0.01-0.006c9.937-4.79,21.477-3.906,30.473,1.777c-9.178-11.334-25.014-14.837-38.078-8.539l-0.01,0.006
	c-1.242,0.591-2.461,1.279-3.639,2.053c-14.537,9.546-18.574,29.07-9.034,43.597c2.547,3.878,5.807,7.005,9.49,9.331
	C134.553,229.447,133.921,228.593,133.331,227.695z"/>
<path style="fill:#D5D6DB;" d="M178.357,186.371c9.546,14.537,5.493,34.057-9.034,43.597c-2.935,1.927-6.068,3.296-9.285,4.131
	c1.261-0.604,2.487-1.282,3.685-2.069c14.537-9.546,18.574-29.07,9.028-43.606c-7.619-11.602-21.596-16.5-34.341-13.145
	C152.409,168.528,169.597,173.031,178.357,186.371z"/>
<circle style="fill:#E56353;" cx="147.668" cy="210.794" r="14.423"/>
<circle style="fill:#3A556A;" cx="147.668" cy="210.794" r="5.876"/>
<circle style="fill:#EBF0F3;" cx="141.861" cy="212.599" r="3.522"/>
<path style="fill:#3A556A;" d="M191.081,158.134c-0.735,1.644-1.811,3.114-3.272,4.249c-2.546,1.995-5.81,2.78-9.007,3.222
	c-7.271,1.002-14.75,0.467-21.812-1.561c-2.863-0.818-5.651-1.887-8.548-2.596c-13.406-3.272-27.614,1.452-39.417,8.615
	c-0.083-0.275-0.142-0.559-0.175-0.835c-0.401-3.005,1.778-5.943,3.873-8.281c4.583-5.117,9.483-10.059,15.309-13.707
	c5.484-3.439,11.144-4.942,17.505-5.559c-0.083-2.571-8.047-4.925-10.259-5.802c6.686-2.621,14.082,0.71,20.477,3.965
	c-2.73-1.494-4.983-3.848-6.369-6.645c5.751,0.559,11.495,1.119,17.246,1.67c3.347,0.326,7.171,0.952,9.232,3.406
	c-1.486-2.179-2.98-4.349-4.474-6.536c1.144,0.376,2.287,0.743,3.414,1.152c6.177,2.237,12.221,5.843,15.451,11.561
	C192.567,148.568,192.967,153.935,191.081,158.134z"/>
<path style="fill:#2F4859;" d="M191.081,158.134c-0.735,1.644-1.811,3.114-3.272,4.249c-2.546,1.995-5.81,2.78-9.007,3.222
	c-7.271,1.002-14.75,0.467-21.812-1.561c-2.863-0.818-5.651-1.887-8.548-2.596c-13.406-3.272-27.614,1.452-39.417,8.615
	c-0.083-0.275-0.142-0.559-0.175-0.835c0.751-0.551,1.544-1.035,2.321-1.444c2.371-1.269,4.95-2.095,7.396-3.222
	c8.055-3.698,14.7-10.518,23.332-12.538c3.464-0.81,7.062-0.785,10.626-0.76c5.593,0.033,11.253,0.083,16.704,1.336
	c1.695,0.392,3.397,0.902,5.134,0.818c2.379-0.117,4.591-1.344,6.97-1.436c1.077-0.042,2.229,0.2,2.98,0.968
	c0.76,0.76,0.91,2.162,0.109,2.88c1.352,0.134,2.713,0.267,4.065,0.392c0.442,0.042,0.902,0.092,1.286,0.317
	c0.426,0.242,0.71,0.676,0.977,1.085C190.855,157.792,190.964,157.967,191.081,158.134z"/>
<g>
</g>
<g>
</g>
<g>
</g>
<g>
</g>
<g>
</g>
<g>
</g>
<g>
</g>
<g>
</g>
<g>
</g>
<g>
</g>
<g>
</g>
<g>
</g>
<g>
</g>
<g>
</g>
<g>
</g>
</svg>
