<svg height="512" viewBox="0 0 60 60" width="512" xmlns="http://www.w3.org/2000/svg"><g id="022---Alien-Plant" fill="none"><g id="Icons" transform="translate(0 1)"><path id="Shape" d="m53 7c0 2.9-2.79 6.72-15.57 7 .2681403-1.2096562-.3214528-2.4465648-1.43-3-1.83-1.22-2.91-.58-4.16-.58-2.33 0-2.85-2.16-4.74-2.63.49-2.98 2.9-7.28 11.35-7.79h1.55c9 0 13 4 13 7z" fill="#6a1b9a"/><path id="Shape" d="m50 7c0 2.65-2.34 6.08-12.54 6.84.23-.84-.11-1.94-1.46-2.84-1.82-1.21-2.89-.58-4.18-.58-.3233099-.1049245-.6601802-.1621925-1-.17-1.55-.53-2.12-2.06-3.71-2.46.48-2.98 2.89-7.28 11.34-7.79 7.98.44 11.55 4.17 11.55 7z" fill="#9d27b0"/><path id="Shape" d="m12 15c-5 0-7.79 8.68-4.71 14.55 1.94-.57 3.23 1.45 7.27.15.6878352-.2691957 1.4415584-.3215376 2.16-.15 3.12-5.95.22-14.55-4.72-14.55z" fill="#9d27b0"/><path id="Shape" d="m17.07 32c1.59-.09 1.13-3.48-2.51-2.3-1.5915459.5642719-3.3251927.5853711-4.93.06-3.86-1.37-4.33 2.24-2.63 2.24 2 0 2.64 1 3 3 2 11-2 13-3 14-.29141363.2805928-.59857809.5443536-.92.79-.86092286-1.5359765-1.46871336-3.2006472-1.8-4.93-.05560268-.3603376-.35058298-.6358188-.71387628-.6666869-.3632933-.030868-.70052319.190896-.81612372.5366869-1.13188121 3.6301703-1.72157322 7.4075688-1.75 11.21-.01622988.5407508.18729696 1.0650103.56414321 1.4531619.37684625.3881517.89486259.6070816 1.43585679.6068381l20 .0000002c0-6.0000002-9-9.0000002-9-23.0000002.0535496-1.661336 1.4078709-2.984777 3.07-3z" fill="#60a917"/><path id="Shape" d="m58.74 56.52c-1.2374792-.7505444-2.3620494-1.673096-3.34-2.74 2.89-5.21 1.48-12.55.6-15.32-.0647573-.2229862-.2452108-.3934061-.4715333-.4453149-.2263224-.0519089-.4630067.0228372-.6184667.1953149-2.3664594 2.3439451-5.225859 4.1306429-8.37 5.23l-1-.92c-.64-5.69-.48-12.21 4.28-14.92.1290331-.0790302.1850755-.2376363.1343369-.3801877s-.1943886-.2300806-.3443369-.2098123c-3.29.56-10 2.78-10.58 9.83-4.32-4-8-8.67-8-15.84 0-6 2-7 4-6s4-2 1-4-4 1-7-2-5 0-3 2c1 1 1.56 3.56 1 8-1 8 6 16 6 22 0 2.16-1.3 3.94-3 5.7-2.5511489-2.5064763-5.624316-4.4186692-9-5.6-.25467-.0978362-.5431574-.0339967-.7327707.162155s-.2436397.4866368-.1372293.737845c1.42 3.08 5.43 9.18 2.87 16h34.9c.75 0 1.47-1.12.81-1.48z" fill="#60a917"/><path id="Shape" d="m23 58c2.56-6.82-1.45-12.92-2.87-16-.1064104-.2512082-.052384-.5416933.1372293-.737845s.4781007-.2599912.7327707-.162155c9.32 3.63 8.93 6.9 16 11.9 4.63 3.25 14 5 14 5z" fill="#008a00"/><path id="Shape" d="m18 58.0000002-15-.0000002c-.5409942.0002435-1.05901054-.2186864-1.43585679-.6068381-.37684625-.3881516-.58037309-.9124111-.56414321-1.4531619.02842678-3.8024312.61811879-7.5798297 1.75-11.21.11560053-.3457909.45283042-.5675549.81612372-.5366869.3632933.0308681.6582736.3063493.71387628.6666869 1.39 7.31 7.82 13.14 13.72 13.1400002z" fill="#008a00"/><path id="Shape" d="m6.07 49.8c.06.11.17.28 0 0z" fill="#33907c"/><path id="Shape" d="m55.4 53.78c-1.0047008 1.8203822-2.5392633 3.2921671-4.4 4.22-4-.75-10.58-2.6-14-5-.65-.47-1.3-.94-1.92-1.46 2.36-3 5.7-6.13 9.92-7.54 3.37-1.12 7.53-3.19 9.91-5.79.15546-.1724777.3921443-.2472238.6184667-.1953149.2263225.0519088.406776.2223287.4715333.4453149.88 2.77 2.29 10.11-.6 15.32z" fill="#007900"/><path id="Shape" d="m48.84 57.53c-3.05-.72-8.6-2.26-11.84-4.53-.62-.44-1.29-.94-1.92-1.46 2.36-3 5.7-6.13 9.92-7.54 3.0050842-.9580753 5.8228735-2.4261672 8.33-4.34 1.6 6.42 1.19 14.42-4.49 17.87z" fill="#008a00"/><path id="Shape" d="m49.84 27.6c-4.76 2.71-4.92 9.23-4.28 14.92-.11-.09-3.13-2.8-3.23-2.8s.32.33-2.45-2.13l-.83-.75c.43-5.11 4.07-7.68 7.29-8.92 1.0621317-.4189281 2.164628-.727225 3.29-.92.1584531-.0355223.3183912.0532682.3720355.2065376.0536442.1532693-.0160148.3224189-.1620355.3934624z" fill="#007900"/><path id="Shape" d="m42.33 39.71c-.8-.68-2.2-1.87-3.28-2.87.43-5.11 4.07-7.68 7.29-8.92-3.55 2.38-4.24 7.08-4.01 11.79z" fill="#008a00"/><path id="Shape" d="m6.07 49.8c.06.11.17.28 0 0z" fill="#33907c"/><path id="Shape" d="m57.93 58h-6.93c1.8607367-.9278329 3.3952992-2.3996178 4.4-4.22.9779506 1.066904 2.1025208 1.9894556 3.34 2.74.66.36-.06 1.48-.81 1.48z" fill="#60a917"/></g><path id="Shape" d="m4 60h54.93c1.76 0 2.92-2.47 1.29-3.35-.955122-.5792211-1.8322384-1.2782257-2.61-2.08 2.39-5.06 1.54-11.67.39-15.42-.1793582-.5607989-.6439565-.983531-1.2191515-1.1092905-.5751951-.1257595-1.1738192.0645118-1.5708485.4992905-2.1001197 2.0948297-4.6276792 3.7116492-7.41 4.74l-.23-.21c-.78-7.35.44-11.68 3.82-13.6.6649366-.2682503.9941425-1.0182471.7414916-1.6892661-.2526508-.6710189-.9947562-1.0176476-1.6714916-.7807339-2.29.39-9.36 2.16-11.06 8.8-3.58-3.56-6.4-7.75-6.4-13.8 0-4.1 1-5 1.28-5.22.4141571-.1837212.8935994-.1421947 1.27.11 1.2081713.6310996 2.697894.2467943 3.45-.89 13.86-.42 16-5.16 16-8 0-3.88-4.91-8-14-8-10.14 0-12.93 4.88-13.69 7.75-2.11.26-3 3-1 5 .7.69 1.25 2.94.72 7.17-1.03 8.27 5.97 16.41 5.97 22.08-.1316968 1.6174751-.8417144 3.1333627-2 4.27-2.5115272-2.2482266-5.4403391-3.9810503-8.62-5.1-.6343276-.244849-1.353697-.0832011-1.8222951.4094838s-.5940153 1.2192473-.3177049 1.8405162c1.14 2.46 3.83 6.67 3.6 11.54-2.48-4.37-7.84-8.34-7.84-18.96.0589199-1.1299291.9986022-2.0122599 2.13-2 1.89-.11 2.49-2.59.87-3.89 1.5572778-3.8090594 1.2921903-8.1204126-.72-11.71-2.79-4.6-7.85-4.48-10.55 0-2.01690061 3.5876052-2.28571473 7.8996783-.73 11.71-1.64 1.32-1 3.89 1 3.89 1.22 0 1.68.31 2 2.18 1.7 9.34-1.1 11.71-2.29 12.72l-.34.31c-.51237247-1.1323014-.89157686-2.3202515-1.13-3.54-.15310348-.7902107-.81481824-1.3810486-1.61725631-1.4440307s-1.54822981.417383-1.82274369 1.1740307c-1.15306952 3.7295218-1.75937488 7.6065077-1.8 11.51-.02434482.8111261.28094544 1.5975154.84621481 2.1797429s1.34229389.9106224 2.15378519.9102571zm54.6-2h-3.44c.5231016-.5031631.9923058-1.0595053 1.4-1.66.6354946.6058849 1.3175917 1.1609247 2.04 1.66zm-2.39-17.66c.54 2 2.08 9.09-.72 14-.8377792 1.5468158-2.1054822 2.8179919-3.65 3.66-1.68-.34-9.34-2-13.26-4.77-.38-.26-.73-.53-1.07-.79 2.2927293-2.911678 5.3398323-5.1390723 8.81-6.44 3.6644094-1.1556088 7.0373659-3.0859357 9.89-5.66zm-8.3-10.57c-2.48 3-2.8 7.45-2.57 11.36-2.25-1.94-3.07-2.62-4.23-3.67.59-4.46 4.05-6.67 6.8-7.69zm-6.91-27.77c8.28 0 12 3.51 12 6 0 1.66-1.35 5.49-13.52 5.95-.129256-.8492384-.5499762-1.6270406-1.19-2.2.8-.75 1.44-.75 2.71-.75.5522847 0 1-.4477153 1-1 0-.55228475-.4477153-1-1-1-1.6531541-.21147858-3.3048905.40138289-4.42 1.64-.9254226-.3885551-1.9463637-.4896039-2.93-.29 1.35-2.46 1.71-4.35 5.35-4.35s4.77 3 10 3c.5522847 0 1-.44771525 1-1s-.4477153-1-1-1c-4.67 0-5.66-3-10-3-5.47 0-6 3.82-7.46 6-.89-.6-1.05-1.15-2.28-1.81.65-2.31 3.04-6.19 11.74-6.19zm-12 18.12c.55-4.38.11-7.44-1.28-8.83-.72-.71-.58-1.45-.23-1.54s1 .12 1.81 1c1.1211116 1.3477064 2.8922603 1.9701058 4.61 1.62.8820336-.2218757 1.8170668-.0385359 2.55.5 1.88 1.26.92 2.74 0 2.28-.9973645-.5711039-2.2226355-.5711039-3.22 0-1.51.85-2.24 3.12-2.24 6.85 0 9.53 6.33 14.92 11.91 19.67 1 .82 1.88 1.6 2.75 2.39-3.8034491 1.4335582-7.1434752 3.87807-9.66 7.07-1.38-1.21-2.4-2.31-3.54-3.47 1.5229868-1.5038206 2.4289252-3.5225652 2.54-5.66 0-6.33-7-14.2-6-21.88zm-6.59 23.22c3.5649547 1.3613155 6.746075 3.5678531 9.27 6.43 4.7 4.82 7.32 6.47 12.58 8.23h-18.89c1.45-5.48-.63-10-2.96-14.66zm-13-23.92c1.94-3.21 5.14-3.26 7.12 0 1.6920472 3.0757401 1.9015891 6.7519126.57 10-.9000525.0173322-1.7914499.1794045-2.64.48.65-1.09 1.54-2.82 1.54-6.9 0-.5522847-.4477153-1-1-1s-1 .4477153-1 1c.0016741.7716003-.0383844 1.5427265-.12 2.31-.88-1.08-1.88-2.06-1.88-3.31 0-.5522847-.4477153-1-1-1s-1 .4477153-1 1c0 3.26 3.64 4.78 2.95 6.59-.2848341.4837144-.5322235.9885223-.74 1.51-1.31-.15-1.86-.7-3.33-.63-1.34776981-3.2614608-1.14176766-6.9584637.56-10.05zm-.41 31.01c1.46-1.24 4.87-4.13 3-14.61-.35-1.82-1.09-3.82-3.93-3.82.00519909-.1067057.0518423-.207168.13-.28.26-.28 1-.43 2.1 0 1.8086782.5934459 3.7622869.5758775 5.56-.05.91-.3 1.64-.26 1.95.08.0758495.0703726.1222874.1668207.13.27-2.1602538.0735503-3.8882736 1.8191135-3.94 3.98 0 13.26 7.91 17.2 8.9 22h-3.9c-4 0-8.15-2.89-10.64-7 .48-.4.19-.17.64-.57zm-4.54-3.64c1.13925358 4.631299 4.01855957 8.6458537 8.04 11.21h-8.5c-.55228475 0-1-.4477153-1-1 .0468051-3.4518617.5374993-6.8833602 1.46-10.21z" fill="#000" transform="translate(-1)"/></g></svg>