<svg id="Capa_1" enable-background="new 0 0 511.964 511.964" height="512" viewBox="0 0 511.964 511.964" width="512" xmlns="http://www.w3.org/2000/svg"><path d="m50.653 268.582h402.732v122.781h-402.732z" fill="#a64c31"/><path d="m420.403 274.428h57.862v198.989h-57.862z" fill="#fa6931"/><path d="m29.716 274.428h57.862v198.989h-57.862z" fill="#fa6931"/><path d="m478.265 335.113h-448.549c-12.29 0-22.252 9.963-22.252 22.252v50.051c0 12.29 9.963 22.252 22.252 22.252h448.549c12.29 0 22.252-9.963 22.252-22.252v-50.051c0-12.289-9.962-22.252-22.252-22.252z" fill="#fd7e42"/><path d="m478.265 203.799h-448.549c-12.29 0-22.252 9.963-22.252 22.252v50.051c0 12.29 9.963 22.252 22.252 22.252h448.549c12.29 0 22.252-9.963 22.252-22.252v-50.051c0-12.289-9.962-22.252-22.252-22.252z" fill="#fd7e42"/><path d="m287.083 38.545c-12.241 16.449 2.104 44.565 24.865 67.326 23.258 23.258 21.422 71.151-15.301 73.064s-46.286-33.28-46.286-33.28c-2.678 16.449-48.199 37.488-60.44 2.295-14.473-41.611 53.555-91.808 53.555-91.808 19.443-15.238 43.607-17.597 43.607-17.597z" fill="#49cb8b"/><path d="m250.365 145.66c-2.677 16.45-48.199 37.491-60.446 2.29-14.466-41.612 53.554-91.808 53.554-91.808 19.444-15.229 43.609-17.589 43.609-17.589-48.2 41.694-36.717 107.107-36.717 107.107z" fill="#13b766"/><path d="m464.295 38.545c-12.241 16.449 2.104 44.565 24.865 67.326 23.258 23.258 21.422 71.151-15.301 73.064s-46.286-33.28-46.286-33.28c-2.678 16.449-48.199 37.488-60.44 2.295-14.473-41.611 53.555-91.808 53.555-91.808 19.443-15.238 43.607-17.597 43.607-17.597z" fill="#49cb8b"/><path d="m427.577 145.66c-2.677 16.45-48.199 37.491-60.446 2.29-14.466-41.612 53.554-91.808 53.554-91.808 19.444-15.229 43.609-17.589 43.609-17.589-48.2 41.694-36.717 107.107-36.717 107.107z" fill="#13b766"/><path d="m109.871 38.545c-12.241 16.449 2.104 44.565 24.865 67.326 23.258 23.258 21.422 71.151-15.301 73.064s-46.286-33.28-46.286-33.28c-2.678 16.449-48.199 37.488-60.44 2.295-14.473-41.611 53.555-91.808 53.555-91.808 19.443-15.238 43.607-17.597 43.607-17.597z" fill="#49cb8b"/><path d="m73.153 145.66c-2.677 16.45-48.199 37.491-60.446 2.29-14.466-41.612 53.554-91.808 53.554-91.808 19.444-15.229 43.609-17.589 43.609-17.589-48.2 41.694-36.717 107.107-36.717 107.107z" fill="#13b766"/><g fill="#454045"><circle cx="449.334" cy="251.077" r="15.638"/><circle cx="449.334" cy="382.391" r="15.638"/><circle cx="58.647" cy="251.077" r="15.638"/><circle cx="58.647" cy="382.391" r="15.638"/></g><path d="m471.02 186.518c1.048 0 2.114-.028 3.197-.084 16.272-.847 28.846-9.774 34.497-24.49 7.568-19.706 1.56-45.51-14.284-61.355-22.606-22.606-32.535-46.266-24.148-57.537 1.771-2.38 1.973-5.581.514-8.165s-4.301-4.063-7.258-3.776c-1.074.105-26.509 2.753-47.416 19.089-4.032 2.99-72.053 54.326-56.089 100.227 5.831 16.763 19.141 25.514 36.475 24.004 8.65-.752 17.208-4.016 24.068-8.622l.803 30.498h-162.185l-.62-23.541c8.221 7.747 19.788 13.756 35.261 13.756 1.046 0 2.112-.028 3.194-.084 16.008-.836 28.492-9.533 34.251-23.86 7.68-19.103 2.267-44.662-12.869-60.773-2.836-3.019-7.582-3.166-10.599-.331-3.019 2.836-3.168 7.581-.331 10.6 11.154 11.873 15.403 31.181 9.883 44.91-2.505 6.232-8.202 13.802-21.116 14.476-.812.042-1.606.063-2.387.063-26.944-.002-35.254-24.51-36.176-27.533-.592-3.889-5.151-38.05 11.344-70.407 1.882-3.69.415-8.206-3.275-10.087-3.688-1.88-8.205-.415-10.086 3.275-17.706 34.732-14.07 70.485-12.946 78.548-1.815 4.709-12.308 13.093-24.699 14.169-10.391.899-17.465-3.804-21.008-13.989-10.366-29.79 33.239-70.231 50.913-83.298.058-.042.114-.086.171-.13 9.051-7.088 19.378-11.133 27.232-13.387-1.343 11.258 2.781 24.71 12.24 39.274 2.257 3.474 6.901 4.459 10.374 2.204 3.473-2.256 4.46-6.9 2.205-10.374-4.82-7.419-15.154-25.851-7.054-36.73 1.772-2.38 1.974-5.582.515-8.166-1.458-2.584-4.301-4.064-7.259-3.776-1.073.105-26.504 2.754-47.415 19.082-4.024 2.984-72.057 54.328-56.085 100.229 5.83 16.76 19.122 25.507 36.469 24.002 8.649-.751 17.208-4.013 24.069-8.618l.803 30.496h-162.186l-.62-23.544c8.222 7.746 19.788 13.754 35.258 13.754 1.048 0 2.114-.028 3.197-.084 16.272-.847 28.846-9.774 34.497-24.49 7.568-19.706 1.56-45.51-14.284-61.355-22.606-22.606-32.535-46.266-24.148-57.537 1.771-2.38 1.973-5.581.514-8.165-1.459-2.583-4.31-4.063-7.258-3.776-1.074.105-26.509 2.753-47.416 19.089-4.032 2.99-72.053 54.326-56.089 100.227 5.83 16.763 19.133 25.514 36.475 24.004 8.65-.752 17.208-4.016 24.068-8.622l.803 30.498h-37.256c-16.403.002-29.748 13.347-29.748 29.75v50.044c0 13.814 9.465 25.457 22.25 28.79v23.673c-12.785 3.331-22.25 14.974-22.25 28.788v50.044c0 13.814 9.465 25.457 22.25 28.79v37.204c0 4.142 3.357 7.499 7.499 7.499h57.854c4.142 0 7.499-3.357 7.499-7.499v-36.245h52.139c4.142 0 7.499-3.357 7.499-7.499s-3.357-7.499-7.499-7.499h-117.493c-8.133 0-14.75-6.617-14.75-14.75v-50.044c0-8.133 6.617-14.75 14.75-14.75h448.486c8.133 0 14.75 6.617 14.75 14.75v50.044c0 8.133-6.617 14.75-14.75 14.75h-300.997c-4.142 0-7.499 3.357-7.499 7.499s3.357 7.499 7.499 7.499h235.646v36.245c0 4.142 3.357 7.499 7.499 7.499h57.854c4.142 0 7.499-3.357 7.499-7.499v-37.205c12.783-3.333 22.247-14.976 22.247-28.789v-50.044c0-13.813-9.464-25.455-22.247-28.788v-23.675c12.783-3.333 22.247-14.976 22.247-28.789v-50.044c0-16.403-13.345-29.748-29.748-29.748h-41.852l-.62-23.544c8.222 7.747 19.788 13.755 35.258 13.755zm-430.184-27.027c-10.402.904-17.468-3.803-21.012-13.989-10.361-29.792 33.244-70.232 50.917-83.298.059-.043.116-.087.173-.132 9.053-7.094 19.386-11.142 27.243-13.395-.766 6.372.109 14.314 4.105 24.04 5.076 12.356 14.731 26.021 27.188 38.478 11.663 11.663 16.344 31.169 10.889 45.373-2.464 6.415-8.155 14.206-21.276 14.89-28.759 1.491-37.574-24.231-38.561-27.446-.578-3.777-5.186-38.007 11.341-70.427 1.882-3.69.415-8.206-3.275-10.087-3.688-1.88-8.205-.415-10.086 3.275-17.698 34.715-14.074 70.45-12.947 78.536-1.806 4.707-12.3 13.104-24.699 14.182zm39.268 306.398h-42.856v-28.746h42.856zm347.776 0v-28.746h42.856v28.746zm42.857-138.286h-42.857v-21.751h42.856v21.751zm-57.855 0h-317.78v-21.755h317.781v21.755zm-332.778-21.751v21.751h-42.856v-21.751zm412.88-79.796v50.044c0 8.133-6.617 14.75-14.75 14.75h-448.486c-8.133 0-14.75-6.617-14.75-14.75v-50.044c0-8.133 6.617-14.75 14.75-14.75h448.486c8.132 0 14.75 6.617 14.75 14.75zm-97.774-66.565c-10.401.904-17.468-3.803-21.012-13.989-10.362-29.791 33.243-70.231 50.917-83.297.059-.043.116-.087.173-.132 9.053-7.094 19.386-11.142 27.243-13.395-.767 6.372.109 14.314 4.105 24.04 5.076 12.356 14.731 26.021 27.188 38.478 11.663 11.663 16.344 31.169 10.889 45.373-2.464 6.415-8.155 14.206-21.276 14.89-28.74 1.491-37.573-24.233-38.561-27.447-.578-3.78-5.185-38.008 11.341-70.427 1.882-3.69.415-8.206-3.275-10.087-3.688-1.88-8.205-.415-10.086 3.275-17.698 34.715-14.074 70.45-12.947 78.536-1.806 4.707-12.3 13.104-24.699 14.182z"/><path d="m449.307 274.212c12.756 0 23.134-10.378 23.134-23.135s-10.378-23.135-23.134-23.135c-12.757 0-23.135 10.378-23.135 23.135s10.378 23.135 23.135 23.135zm0-31.271c4.487 0 8.137 3.65 8.137 8.137s-3.65 8.137-8.137 8.137-8.138-3.65-8.138-8.137 3.651-8.137 8.138-8.137z"/><path d="m472.441 382.373c0-12.757-10.378-23.135-23.134-23.135-12.757 0-23.135 10.378-23.135 23.135s10.378 23.135 23.135 23.135c12.756 0 23.134-10.379 23.134-23.135zm-31.272 0c0-4.487 3.651-8.137 8.138-8.137s8.137 3.65 8.137 8.137-3.65 8.137-8.137 8.137-8.138-3.65-8.138-8.137z"/><path d="m58.675 227.943c-12.757 0-23.135 10.378-23.135 23.135s10.378 23.135 23.135 23.135c12.756 0 23.134-10.378 23.134-23.135.001-12.757-10.378-23.135-23.134-23.135zm0 31.271c-4.487 0-8.138-3.65-8.138-8.137s3.651-8.137 8.138-8.137 8.137 3.65 8.137 8.137-3.65 8.137-8.137 8.137z"/><path d="m35.54 382.373c0 12.757 10.378 23.135 23.135 23.135 12.756 0 23.134-10.378 23.134-23.135s-10.378-23.135-23.134-23.135c-12.757 0-23.135 10.378-23.135 23.135zm31.272 0c0 4.487-3.65 8.137-8.137 8.137s-8.138-3.65-8.138-8.137 3.651-8.137 8.138-8.137 8.137 3.65 8.137 8.137z"/></svg>