<?xml version="1.0" encoding="iso-8859-1"?>
<!-- Generator: Adobe Illustrator 19.0.0, SVG Export Plug-In . SVG Version: 6.00 Build 0)  -->
<svg version="1.1" id="Capa_1" xmlns="http://www.w3.org/2000/svg" xmlns:xlink="http://www.w3.org/1999/xlink" x="0px" y="0px"
	 viewBox="0 0 468.293 468.293" style="enable-background:new 0 0 468.293 468.293;" xml:space="preserve">
<path style="fill:#64798A;" d="M431.063,325.818c-5.245-9.928-17.108-15.048-28.285-14.798c-8.179,0.187-16.047,2.747-23.477,6.369
	c-2.872,5.058-7.867,9.428-12.425,13.299c-18.732,15.985-34.903,37.463-36.152,62.064c-0.125,3.122,0,6.369,1.623,9.054
	c3.122,4.995,10.239,5.682,15.984,4.371c15.422-3.434,26.911-16.109,40.71-23.727c5.745-3.247,11.927-5.557,17.858-8.554
	c8.866-4.558,17.233-10.802,22.353-19.418C434.372,345.861,435.746,334.622,431.063,325.818z"/>
<path style="fill:#3A556A;" d="M403.331,332.61c2.504-0.669,5.062-1.344,7.649-1.178c2.587,0.165,5.253,1.322,6.569,3.555
	c1.739,2.951,0.595,6.902-1.701,9.443c-2.296,2.541-5.502,4.023-8.559,5.566c-6.29,3.176-12.345,6.899-17.632,11.558
	c-9.005,7.934-15.566,18.37-24.749,26.096c-3.636,3.059-7.635,5.651-11.623,8.234c-2.048-2.179-0.076-5.66,1.88-7.923
	c6.714-7.772,13.457-15.572,21.197-22.323c4.132-3.604,8.597-6.963,11.736-11.459c2.858-4.094,4.466-9.052,4.615-14.039
	c0.099-3.312-0.753-3.537,1.732-5.16C396.587,333.582,400.834,333.277,403.331,332.61z"/>
<path style="fill:#64798A;" d="M62.493,130.601c-10.323-4.418-22.765-0.934-31.296,6.291c-6.24,5.291-10.745,12.23-14.243,19.72
	c0.949,5.738-0.184,12.278-1.292,18.155c-4.504,24.21-3.562,51.079,10.944,70.988c1.867,2.505,4.007,4.951,6.958,6.016
	c5.569,1.919,11.534-2.025,15.174-6.658c9.828-12.372,10.784-29.452,16.718-44.054c2.423-6.138,5.775-11.823,8.5-17.884
	c4.024-9.121,6.6-19.238,5.159-29.157C77.674,144.099,71.672,134.498,62.493,130.601z"/>
<path style="fill:#3A556A;" d="M45.209,153.327c1.526-2.095,3.09-4.229,5.204-5.728c2.115-1.499,4.915-2.277,7.343-1.369
	c3.208,1.2,4.805,4.991,4.618,8.41c-0.187,3.42-1.746,6.589-3.151,9.712c-2.892,6.426-5.255,13.129-6.435,20.076
	c-2.008,11.832-0.542,24.072-2.821,35.855c-0.902,4.665-2.38,9.196-3.855,13.713c-2.963-0.405-3.619-4.352-3.523-7.341
	c0.33-10.265,0.664-20.571,2.433-30.687c0.945-5.402,2.303-10.821,1.914-16.291c-0.354-4.98-2.223-9.846-5.245-13.816
	c-2.007-2.637-2.811-2.276-1.9-5.1C40.578,158.325,43.687,155.417,45.209,153.327z"/>
<path style="fill:#64798A;" d="M355.464,41.409C298.71,0.024,163.712-52.945,85.613,119.643c-2.528,5.587-5.805,10.82-9.64,15.606
	c-8.168,10.194-22.552,30.816-27.689,55.034c0,0-7.723,73.623-17.035,123.456c-4.989,26.696,8.53,53.383,32.952,65.264
	l170.602,82.996c19.937,9.699,44.092,8.37,61.603-5.229c8.24-6.399,15.68-15.789,20.267-29.549c0,0,26.21-70.243,67.097-92.259
	C383.771,334.96,561.547,191.686,355.464,41.409z"/>
<path style="fill:#E1E6E9;" d="M361.725,287.689c-25.088,33.106-54.703,18.556-85.767-4.977
	c-31.064-23.533-51.812-47.139-26.725-80.245s86.511-63.175,117.575-39.641S386.813,254.583,361.725,287.689z"/>
<path style="fill:#EBF0F3;" d="M359.384,280.007c-23.936,31.586-52.187,17.708-81.819-4.74
	c-29.632-22.449-49.423-44.968-25.487-76.554s82.536-60.278,112.167-37.83S383.32,248.421,359.384,280.007z"/>
<ellipse transform="matrix(-0.5942 -0.8043 0.8043 -0.5942 316.5786 567.5727)" style="fill:#D5D6DB;" cx="301.46" cy="203.929" rx="14.86" ry="40.329"/>
<circle style="fill:#3A556A;" cx="328.367" cy="244.361" r="22.959"/>
<circle style="fill:#EBF0F3;" cx="335.672" cy="233.578" r="9.135"/>
<path style="fill:#E1E6E9;" d="M204.618,206.127c-19.298,25.466-42.079,14.274-65.974-3.829s-39.856-36.261-20.557-61.727
	s66.547-48.596,90.442-30.493S223.916,180.661,204.618,206.127z"/>
<path style="fill:#EBF0F3;" d="M202.817,200.218c-18.412,24.297-40.144,13.622-62.938-3.646s-38.018-34.59-19.606-58.887
	s63.489-46.368,86.283-29.1S221.23,175.921,202.817,200.218z"/>
<ellipse transform="matrix(-0.5942 -0.8043 0.8043 -0.5942 138.3526 353.2655)" style="fill:#D5D6DB;" cx="158.288" cy="141.733" rx="11.433" ry="31.026"/>
<circle style="fill:#3A556A;" cx="178.95" cy="172.769" r="17.658"/>
<circle style="fill:#EBF0F3;" cx="184.57" cy="164.502" r="7.024"/>
<g>
	<path style="fill:#D5D6DB;" d="M350.175,142.066c3.994,0.055,8.013,0.264,11.896,1.166c4.027,0.936,7.839,2.603,11.424,4.601
		c9.101,5.072,17.028,12.603,20.796,22.051c2.72,6.82,3.168,14.252,3.587,21.545c0.852,14.845,1.572,30.391-4.951,43.869
		c5.131-0.923,8.071-6.109,9.693-10.883c4.656-13.706,4.452-28.439,4.201-42.857c-0.111-6.403-0.24-12.911-2.24-19.019
		c-2.998-9.155-10.323-16.907-19.509-20.65c-8.351-3.402-17.7-3.52-26.769-3.424c-7.091,0.075-14.181,0.249-21.267,0.521
		c-5.168,0.199-33.551,0.813-32.264,8.908C320.137,145.664,334.35,141.849,350.175,142.066z"/>
	<path style="fill:#D5D6DB;" d="M191.621,84.749c3.514,0.048,7.05,0.232,10.465,1.026c3.542,0.823,6.896,2.29,10.05,4.048
		c8.007,4.462,14.98,11.088,18.295,19.399c2.393,6,2.787,12.538,3.155,18.954c0.749,13.06,1.383,26.736-4.356,38.594
		c4.514-0.812,7.1-5.374,8.527-9.574c4.096-12.058,3.917-25.019,3.696-37.703c-0.098-5.633-0.211-11.359-1.971-16.732
		c-2.638-8.054-9.081-14.874-17.163-18.167c-7.347-2.993-15.572-3.097-23.55-3.012c-6.238,0.066-12.476,0.219-18.709,0.459
		c-4.547,0.175-29.516,0.716-28.384,7.837C165.195,87.914,177.699,84.558,191.621,84.749z"/>
</g>
<path style="fill:#3A556A;" d="M246.828,386.429c0.056,3.184,0.112,6.424-0.67,9.496c-1.229,4.916-4.413,9.049-6.592,13.574
	c-1.118,2.402-2.011,4.971-3.687,7.038c-4.413,5.363-12.68,5.307-19.439,3.575c-10.446-2.681-19.886-8.267-29.158-13.741
	c-2.737-1.62-5.474-3.295-7.876-5.418c-3.52-3.184-6.089-7.317-8.714-11.284c-2.793-4.189-5.81-8.155-9.105-11.954
	c-0.558-0.726-1.173-1.452-1.787-2.178c-6.145-7.038-12.96-13.462-20.333-19.16c-0.335-0.279-0.67-0.503-1.005-0.782l-0.056-0.056
	c-8.043-6.089-16.702-11.284-25.36-16.534l-6.088-3.687l-16.199-9.719c5.81-0.559,11.675-1.061,17.54-1.62
	c0.894-0.056,1.843-0.223,2.458-0.894c0.558-0.614,0.614-1.452,0.614-2.29c0.28-6.2,0.112-12.4-0.502-18.601
	c-0.112-1.285-0.28-2.626-0.95-3.743c-2.011-3.24-6.759-2.681-10.613-2.458c-0.726,0.056-1.508,0.056-2.29,0.056
	c-7.15-0.223-6.927-11.004,0.223-11.283c8.491-0.391,17.428,0.503,24.019,1.173c10.502,1.005,20.891,3.24,30.834,6.703
	c3.687,1.229,7.318,2.681,10.893,4.245c5.139,2.29,10.11,4.86,15.082,7.597c1.341,0.67,2.738,1.452,4.078,2.179
	c5.083,2.793,10.221,5.586,14.97,8.937c2.402,1.676,4.692,3.519,6.815,5.53c3.519,3.408,6.591,7.373,10.278,10.557
	c1.005,0.838,2.01,1.62,3.072,2.402c6.368,4.525,13.742,7.709,19.104,13.35C245.823,357.495,246.605,372.632,246.828,386.429z"/>
<g>
	<path style="fill:#E1E6E9;" d="M178.066,304.485c-2.458,4.86-9.663,18.377-14.915,19.104c-6.479,0.894-19.941-9.328-20.835-15.752
		c-0.558-3.854,5.083-10.446,9.775-15.193c3.687,1.229,7.318,2.681,10.893,4.245C168.124,299.178,173.095,301.748,178.066,304.485z"
		/>
	<path style="fill:#E1E6E9;" d="M217.279,334.09c-3.128,5.865-9.217,16.367-13.909,17.037c-6.48,0.894-19.941-9.272-20.835-15.752
		c-0.726-5.418,10.837-16.422,14.579-19.774c2.402,1.676,4.692,3.519,6.815,5.53c3.519,3.408,6.591,7.373,10.278,10.557
		C215.212,332.526,216.217,333.308,217.279,334.09z"/>
	<path style="fill:#E1E6E9;" d="M172.76,359.394c0.223,4.413-7.82,11.842-12.959,16.143c-6.145-7.038-12.96-13.462-20.333-19.16
		c3.743-5.697,9.775-13.853,13.965-14.132C159.912,341.798,172.369,352.858,172.76,359.394z"/>
</g>
<g>
	<path style="fill:#E56353;" d="M138.463,355.596l-0.056-0.056c-8.043-6.089-16.702-11.284-25.36-16.534l-6.088-3.687
		c0.391-0.615,0.838-1.229,1.341-1.732c5.027-4.971,15.25-2.793,22.846,4.804C136.507,343.754,139.133,350.401,138.463,355.596z"/>
	<path style="fill:#E56353;" d="M190.355,403.69c-0.838,1.117-1.844,2.011-3.073,2.681c-2.737-1.62-5.474-3.295-7.876-5.418
		c-3.52-3.184-6.089-7.317-8.714-11.284c-2.793-4.189-5.81-8.155-9.105-11.954c5.362-3.687,14.299-2.681,21.729,3.017
		C191.92,387.267,195.047,397.545,190.355,403.69z"/>
</g>
<g>
	<path style="fill:#3A556A;" d="M184.007,242.191c-8.653,0.775-17.199,3.943-23.762,9.635c-2.737,2.374-5.278,5.692-4.704,9.269
		c0.238,1.484,0.997,2.831,1.827,4.084c3.448,5.207,8.383,9.417,14.068,12.001c6.563,2.983,14.689,3.63,20.716-0.326
		c5.615-3.685,8.262-10.416,10.58-16.719c2.117-5.756,7.511-12.698,1.735-15.924C198.241,240.735,190.282,243.89,184.007,242.191z"
		/>
	<path style="fill:#3A556A;" d="M207.61,278.351c-1.785,6.037-3.583,12.407-2.152,18.537c1.238,5.303,4.795,9.805,8.922,13.357
		c3.985,3.43,8.785,6.21,14.028,6.615c5.243,0.405,10.92-2.02,13.24-6.739c2.356-4.792,0.871-10.5-0.704-15.603
		c-2.491-8.072-5.111-16.103-7.858-24.091c-0.932-2.71-1.914-5.479-3.748-7.682c-1.785-2.143-5.081-4.814-7.665-5.925
		c-4.188-1.801-3.216-2.337-6.341,1.773C211.224,263.994,209.497,271.968,207.61,278.351z"/>
</g>
<g>
</g>
<g>
</g>
<g>
</g>
<g>
</g>
<g>
</g>
<g>
</g>
<g>
</g>
<g>
</g>
<g>
</g>
<g>
</g>
<g>
</g>
<g>
</g>
<g>
</g>
<g>
</g>
<g>
</g>
</svg>
