<?xml version="1.0" encoding="iso-8859-1"?>
<!-- Generator: Adobe Illustrator 19.0.0, SVG Export Plug-In . SVG Version: 6.00 Build 0)  -->
<svg version="1.1" id="Capa_1" xmlns="http://www.w3.org/2000/svg" xmlns:xlink="http://www.w3.org/1999/xlink" x="0px" y="0px"
	 viewBox="0 0 468.293 468.293" style="enable-background:new 0 0 468.293 468.293;" xml:space="preserve">
<g>
	<path style="fill:#E1E6E9;" d="M177.62,373.01l-1.396,11.443l-0.139,1.256c-0.419,3.279-3,5.791-6.28,6.14l-13.257,1.256
		c-2.651,0.279-5.163-0.977-6.489-3.14c-0.349-0.488-0.628-1.046-0.837-1.605l-2.372-7.326
		C157.176,379.778,167.433,376.499,177.62,373.01z"/>
	<path style="fill:#E1E6E9;" d="M278.094,361.428l-2.931,10.535l-0.139,0.419c-0.907,3.14-3.837,5.233-7.117,5.094l-13.327-0.767
		c-3.28-0.21-5.931-2.651-6.489-5.861l-0.21-1.465l-1.674-10.326c5.442-0.209,10.885-0.14,16.327,0.14
		C267.768,359.474,273.07,360.102,278.094,361.428z"/>
	<path style="fill:#E1E6E9;" d="M228.555,360.311l-2.721,14.025l-0.419,2.163c-0.628,3.21-3.419,5.512-6.698,5.582l-13.327,0.349
		c-3.279,0.07-6.14-2.093-6.977-5.233v-0.069l-2.442-10.047C206.576,363.94,217.531,361.637,228.555,360.311z"/>
</g>
<g>
	<path style="fill:#D5D6DB;" d="M167.573,386.546c2.93-0.558,5.861-1.116,8.652-2.093l-0.139,1.256c-0.419,3.279-3,5.791-6.28,6.14
		l-13.257,1.256c-2.651,0.279-5.163-0.977-6.489-3.14C155.92,388.919,161.781,387.593,167.573,386.546z"/>
	<path style="fill:#D5D6DB;" d="M217.74,374.545c2.651-0.419,5.373-0.07,8.094-0.21l-0.419,2.163
		c-0.628,3.21-3.419,5.512-6.698,5.582l-13.327,0.349c-3.279,0.07-6.14-2.093-6.977-5.233c3.419,0.14,6.908,0.488,10.257-0.209
		C211.739,376.359,214.67,374.964,217.74,374.545z"/>
	<path style="fill:#D5D6DB;" d="M275.164,371.963l-0.139,0.419c-0.907,3.14-3.837,5.233-7.117,5.094l-13.327-0.767
		c-3.28-0.21-5.931-2.651-6.489-5.861l-0.21-1.465c1.256,0,2.442,0.14,3.628,0.279C259.395,370.428,267.28,371.196,275.164,371.963z
		"/>
</g>
<path style="fill:#1C75A1;" d="M409.317,225.635c24.677,16.065,26.667,51.045,6.765,72.747
	c-21.885,23.864-7.179,48.907-30.338,48.907c-28.329,0-51.295-28.843-51.295-64.422s22.966-64.422,51.295-64.422
	C394.243,218.445,402.259,221.041,409.317,225.635z"/>
<path style="fill:#2D93BA;" d="M381.447,327.045c-15.196-2.777-27.393-21.798-27.393-44.004c0-24.042,14.301-44.353,31.222-44.353
	c4.358,0,8.611,1.326,12.628,3.946c6.082,3.959,9.963,10.28,10.91,17.793c1.104,8.722-1.882,17.907-7.99,24.568
	c-13.85,15.101-17.012,30.529-19.109,40.74C381.63,326.15,381.538,326.595,381.447,327.045z"/>
<g>
	<path style="fill:#E1E6E9;" d="M208.522,409.816c-10.483-2.46-21.015-4.705-31.415-4.93l1.64-7.456
		c0.042-0.285,0.153-0.576,0.271-0.798c0.91-2.826,3.528-4.699,6.541-4.72l13.323,0.003c3.013-0.02,5.582,1.827,6.553,4.535
		c0.167,0.264,0.201,0.611,0.299,0.882L208.522,409.816z"/>
	<path style="fill:#E1E6E9;" d="M284.965,406.005c-5.163,0.907-10.466,1.117-15.699,0.977c-5.442-0.14-10.885-0.488-16.257-1.116
		l2.791-11.583c0.07-0.419,0.209-0.767,0.349-1.116c1.117-2.582,3.698-4.326,6.559-4.257l13.327,0.279
		c3.279,0.07,6.07,2.442,6.698,5.652l0.14,0.558L284.965,406.005z"/>
	<path style="fill:#E1E6E9;" d="M245.37,404.877c-11.094,0.837-22.188,0.698-33.282-0.349l0.488-10.326
		c0.07-0.977,0.279-1.954,0.768-2.791c0.907-1.953,2.791-3.349,5.023-3.768l13.117-2.233c3.28-0.558,6.419,1.186,7.675,4.186
		l0.488,1.186L245.37,404.877z"/>
</g>
<path style="fill:#1C75A1;" d="M179.648,466.215c-7.207,0-14.421-1.485-20.854-4.296c-14.445-6.238-25.841-19.61-29.72-34.89
	c-1.64-6.454-1.53-11.82,0.348-16.393c3.36-8.064,12.299-13.253,22.78-13.253c0.482,0,0.957,0.012,1.433,0.034
	c5.939,0.345,11.305,2.03,16.494,3.659c1.982,0.622,3.963,1.247,5.963,1.781c5.463,1.463,11.14,2.204,16.884,2.204
	c7.457,0,14.738-1.232,21.646-3.665c1.451-0.509,2.89-1.07,4.335-1.628c5.47-2.119,11.122-4.311,17.628-4.378
	c0.006,0,0.012,0,0.018,0c9.018,0,16.226,3.555,23.195,6.991c2.018,0.994,4.03,1.991,6.073,2.881
	c3.799,1.64,7.793,2.552,11.22,2.552c3.659,0,6.427-1.015,8.207-3.012c1.22-1.393,2.14-3.588,3.122-5.915l0.994-2.317
	c0.543-1.192,1.11-2.338,1.677-3.488c1.543-3.11,2.994-6.046,3.341-8.829c0.939-6.585-4.122-12.805-9.213-15.841
	c-6.707-3.966-15.299-4.924-22.817-5.338c-3.421-0.186-6.854-0.28-10.28-0.28c-19.018,0-37.884,2.823-56.067,8.387
	c-4.439,1.36-8.884,2.884-13.335,4.415c-14.201,4.872-28.89,9.915-44.146,9.915c-3.323,0-6.604-0.244-9.762-0.726
	c-10.994-1.616-24.933-8.299-27.902-21.79c-1.598-7.073,0.372-13.954,2.11-20.024c1.683-5.896,3.14-10.988,1.274-14.93
	c-1.037-2.207-3.354-4.25-5.811-6.415l-0.494-0.439c-13.878-12.159-36.39-36.875-31.03-65.619c0.762-4.241,2.116-8.229,3.421-12.088
	c1.36-4.024,2.646-7.826,3.159-11.607c0.695-4.991,0.665-10.841,0.634-17.037c-0.073-12.841-0.146-27.396,6.628-38.649
	c8.555-14.107,30.354-22.037,47.866-28.409c5.494-1.997,10.677-3.884,14.64-5.674c13.683-6.274,29.232-13.402,45.75-16.232
	c9.189-1.628,18.494-1.832,27.238-1.902c30.073,0,56.512,2.628,80.878,8.034c8.476,1.89,17.323,4.399,24.646,9.89
	c8.701,6.463,13.823,16.055,18.061,25.454c20.488,45.781,28.415,99.72,24.969,169.774c-1.415,29.957-4.994,61.366-21.433,88.024
	c-15.11,24.43-41.165,40.213-66.39,40.213c-5.116,0-10.177-0.652-15.043-1.939c-5.39-1.424-10.622-3.582-15.683-5.671
	c-7.78-3.207-15.128-6.241-21.976-6.241c-2.293,0-4.409,0.341-6.457,1.04c-2.665,0.912-5.335,2.579-8.165,4.348
	c-1.683,1.052-3.372,2.101-5.098,3.04C197.123,464.038,188.489,466.215,179.648,466.215z"/>
<path style="fill:#27A2DB;" d="M358.614,336.812c-1.396,29.444-5.024,59.935-20.513,85.054
	c-15.49,25.049-46.051,43.05-74.518,35.515c-16.118-4.256-31.956-16.118-47.725-10.745c-5.093,1.744-9.489,5.233-14.234,7.815
	c-12.21,6.698-27.561,7.326-40.329,1.744c-12.769-5.512-22.746-17.234-26.165-30.701c-1.047-4.116-1.535-8.582,0.07-12.489
	c2.791-6.698,10.885-9.699,18.141-9.35c7.257,0.419,14.094,3.349,21.142,5.233c13.815,3.698,28.747,3.14,42.213-1.605
	c6.559-2.303,12.978-5.582,19.955-5.652c9.49-0.21,17.932,5.512,26.723,9.35c8.722,3.768,20.235,5.093,26.584-2.024
	c2.442-2.791,3.628-6.419,5.163-9.838c2.093-4.605,4.884-9.071,5.512-14.094c1.256-8.792-4.605-17.443-12.21-21.979
	c-7.675-4.535-16.816-5.721-25.677-6.21c-23.095-1.256-46.399,1.605-68.517,8.373c-21.212,6.489-42.562,16.745-64.471,13.396
	c-9.978-1.465-20.583-7.117-22.746-16.955c-2.721-12.071,8.233-25.049,2.93-36.282c-1.674-3.559-4.814-6.21-7.815-8.861
	c-17.443-15.28-33.282-36.98-29.026-59.796c1.465-8.163,5.512-15.769,6.629-24.002c2.233-16.048-2.442-38.585,6.419-53.307
	c9.908-16.327,43.19-24.142,59.726-31.608c14.304-6.559,28.747-13.118,44.237-15.769c8.652-1.535,17.443-1.744,26.235-1.814
	c26.654,0,53.377,2.094,79.472,7.884c7.815,1.744,15.838,3.977,22.258,8.792c7.605,5.652,12.21,14.373,16.118,23.025
	C357.357,221.686,361.404,280.086,358.614,336.812z"/>
<g>
	<path style="fill:#2D93BA;" d="M277.807,265.509c0,27.725-22.53,50.149-50.387,50.149c-20.371,0-37.934-12.036-45.78-29.373
		c-2.951-6.305-4.606-13.325-4.606-20.776c0-27.654,22.602-50.149,50.387-50.149c27.425,0,49.666,21.779,50.314,48.86
		C277.807,264.649,277.807,265.079,277.807,265.509z"/>
	<path style="fill:#2D93BA;" d="M166.252,266.977c0,26.914-22.522,48.681-50.369,48.681c-14.823,0-28.134-6.189-37.201-15.995
		c-8.275-8.623-13.168-20.029-13.168-32.686c0-26.844,22.522-48.681,50.369-48.681c25.04,0,45.763,17.595,49.649,40.684
		C166.036,261.553,166.252,264.266,166.252,266.977z"/>
</g>
<path style="fill:#EBF0F3;" d="M267.753,270.299c0,25.077-20.282,45.359-45.359,45.359c-18.338,0-34.149-10.886-41.213-26.568
	c-2.657-5.702-4.147-12.053-4.147-18.792c0-25.012,20.347-45.359,45.359-45.359c24.688,0,44.711,19.699,45.295,44.193
	C267.753,269.521,267.753,269.91,267.753,270.299z"/>
<path style="fill:#2F4859;" d="M414.077,178.95c-6.711-23.303-13.979-47.6-30.801-65.067c30.577-9.072,59.516-23.64,85.016-42.798
	c-18.595-10.115-40.707-10.909-61.874-10.676c-25.483,0.281-50.954,1.711-76.309,4.283c3.902-6.865,1.886-15.863-2.818-22.205
	c-4.703-6.342-11.616-10.61-18.356-14.722c-14.035-8.563-28.071-17.125-42.106-25.688c4.051,13.054,4.868,27.097,2.361,40.533
	c-69.278-6.919-142.941,5.986-197.981,48.622C46.418,110.435,25.853,135.044,0,152.586c32.146-15.408,65.456-28.389,99.606-38.613
	c-19.103,33.818-38.207,67.636-57.31,101.453c40.114-17.889,78.984-38.565,116.239-61.828c-5.036,16.584-7.551,33.933-7.429,51.265
	c27.576-15.828,52.209-36.769,72.266-61.441c-6.028,29.388-15.634,58.04-28.54,85.121c33.707-23.853,55.038-61.974,88.162-86.63
	c16.806,43.118,20.696,91.176,11.045,136.436c9.49-17.469,19.644-34.579,30.431-51.278c6.058,21.565,12.115,43.131,18.172,64.697
	c1.64-13.958,12.649-24.984,24.359-32.755c11.71-7.771,53.615-31.613,62.472,8.003c2.23-15.022,4.936-17.465,0.734-32.058
	C424.83,216.289,419.454,197.619,414.077,178.95z"/>
<path style="fill:#3A556A;" d="M332.069,176.723l-13.778,21.331c-2.569-21.855-7.856-43.37-15.794-63.74l-9.969-25.586
	L270.5,125.122c-9.935,7.393-18.758,15.699-27.003,24.319c0.129-0.603,0.252-1.209,0.375-1.812l-36.747-17.406
	c-8.715,10.722-18.268,20.602-28.598,29.586c0.014-0.041,16.251-53.513,16.251-53.513l-47.329,29.548
	c-17.505,10.929-35.452,21.314-53.714,31.088l49.666-87.912l-25.293,7.57c40.685-19.988,83.865-24.809,116.019-24.809
	c10.875,0,21.975,0.559,32.986,1.659l19.126,1.908l3.53-18.898c0.327-1.772,0.613-3.55,0.852-5.335l7.413,4.521
	c4.967,3.032,10.105,6.167,12.442,9.321c0.245,0.324,0.422,0.661,0.545,0.951l-19.167,33.708l40.365-4.095
	c24.646-2.501,49.687-3.908,74.428-4.177l3.904-0.024c-10.725,4.937-21.811,9.11-33.231,12.497l-33.006,9.791l23.883,24.796
	c13.621,14.139,20.074,36.556,25.763,56.337l6.671,23.164l-13.158,12.67c-5.015,4.824-11.917,8.868-19.222,13.151
	c-4.334,2.535-8.66,5.083-12.824,7.846c-1.479,0.981-2.916,1.983-4.3,3.001L332.069,176.723z"/>
<path style="fill:#EBF0F3;" d="M156.234,270.299c0,25.077-20.282,45.359-45.359,45.359c-13.349,0-25.336-5.767-33.501-14.904
	c-7.452-8.035-11.858-18.662-11.858-30.456c0-25.012,20.282-45.359,45.359-45.359c22.55,0,41.212,16.394,44.712,37.908
	C156.039,265.245,156.234,267.772,156.234,270.299z"/>
<circle style="fill:#3A556A;" cx="98.629" cy="263.237" r="18.395"/>
<circle style="fill:#EBF0F3;" cx="90.724" cy="255.251" r="9.197"/>
<circle style="fill:#3A556A;" cx="215.914" cy="263.237" r="18.395"/>
<circle style="fill:#EBF0F3;" cx="208.009" cy="255.251" r="9.197"/>
<g>
	<path style="fill:#D5D6DB;" d="M267.688,269.133c0.065,0.389,0.065,0.778,0.065,1.166c0,25.077-20.282,45.359-45.359,45.359
		c-18.338,0-34.149-10.886-41.213-26.568c6.61,6.35,15.358,10.303,24.365,11.534c10.822,1.491,21.967-0.648,32.011-4.989
		c3.758-1.62,7.452-3.564,10.757-6.026c4.406-3.37,8.035-7.517,11.664-11.664C262.569,274.965,265.161,272.049,267.688,269.133z"/>
	<path style="fill:#D5D6DB;" d="M156.234,270.299c0,25.077-20.282,45.359-45.359,45.359c-13.349,0-25.336-5.767-33.501-14.904
		c1.231-1.102,2.657-1.944,4.147-2.527c4.341-1.62,9.072-1.555,13.737-1.49c4.341,0.065,8.813,0.065,13.024-1.037
		c3.305-0.842,6.351-2.268,9.396-3.694c4.795-2.268,9.655-4.536,14.451-6.804c3.499-1.685,7.063-3.37,9.979-5.962
		c4.147-3.694,7.97-12.96,13.478-16.394C156.039,265.245,156.234,267.772,156.234,270.299z"/>
	<path style="fill:#D5D6DB;" d="M205.435,396.45c-8.713,1.921-17.746,2.051-26.417,0.181c0.91-2.826,3.528-4.699,6.541-4.72
		l13.323,0.003C201.896,391.895,204.464,393.743,205.435,396.45z"/>
	<path style="fill:#D5D6DB;" d="M239.161,389.597l0.488,1.186c-7.047,0-14.164,0.139-21.211,0.349
		c-1.674,0.07-3.419,0.07-5.093,0.279c0.907-1.953,2.791-3.349,5.023-3.768l13.117-2.233
		C234.765,384.852,237.905,386.597,239.161,389.597z"/>
	<path style="fill:#D5D6DB;" d="M282.872,395.4c-2.303,0.698-4.884,1.046-6.35,1.046c-5.372,0.07-10.326-2.93-15.699-3.21
		c-1.535-0.069-3.139,0.07-4.675-0.069c1.117-2.582,3.698-4.326,6.559-4.257l13.327,0.279c3.279,0.07,6.07,2.442,6.698,5.652
		L282.872,395.4z"/>
</g>
<g>
	<path style="fill:#1C75A1;" d="M392.307,264.837c0.378,2.243-0.358,4.506-1.072,6.666c-4.309,13.034-8.161,26.219-11.547,39.522
		c-0.378-2.623-0.757-5.245-1.135-7.868c-0.459-3.183-0.916-6.448-0.234-9.591c0.665-3.067,2.366-5.79,3.68-8.641
		c1.386-3.008,2.419-6.257,2.888-9.541c0.567-3.972-1.1-5.554-2.077-9.045C381.208,260.621,391.195,258.243,392.307,264.837z"/>
	<path style="fill:#1C75A1;" d="M169.049,336.981c-2.901-7.001,1.081-23.729,1.248-25.218c-8.094,6.263-11.383,17.881-7.155,28.085
		c4.107,9.911,13.851,14.978,23.298,13.092C186.18,352.018,172.199,344.582,169.049,336.981z"/>
</g>
<path style="fill:#2D93BA;" d="M195.456,351.441c-11.623,3.685-24.388-1.674-29.498-13.067c-4.848-10.808-1.048-23.146,8.298-29.709
	c-0.101-0.185-0.2-0.368-0.295-0.557l-2.483,1.114c-12.267,5.501-17.751,19.904-12.251,32.17
	c5.501,12.266,19.905,17.751,32.171,12.25l4.193-1.88C195.546,351.655,195.5,351.549,195.456,351.441z"/>
<ellipse transform="matrix(-0.2677 -0.9635 0.9635 -0.2677 -88.1646 594.2167)" style="fill:#D5D6DB;" cx="181.729" cy="330.612" rx="9.716" ry="7.705"/>
<g>
</g>
<g>
</g>
<g>
</g>
<g>
</g>
<g>
</g>
<g>
</g>
<g>
</g>
<g>
</g>
<g>
</g>
<g>
</g>
<g>
</g>
<g>
</g>
<g>
</g>
<g>
</g>
<g>
</g>
</svg>
