<?xml version="1.0" encoding="iso-8859-1"?>
<!-- Generator: Adobe Illustrator 19.0.0, SVG Export Plug-In . SVG Version: 6.00 Build 0)  -->
<svg version="1.1" id="Capa_1" xmlns="http://www.w3.org/2000/svg" xmlns:xlink="http://www.w3.org/1999/xlink" x="0px" y="0px"
	 viewBox="0 0 468.293 468.293" style="enable-background:new 0 0 468.293 468.293;" xml:space="preserve">
<path style="fill:#F6C358;" d="M372.47,261.551c-0.207-5.098-0.909-10.88-5.036-13.879c-1.994-1.449-4.493-1.989-6.927-2.383
	c-12.971-2.101-26.971-0.845-38.031,6.249c-9.048,5.803-15.462,16.065-15.898,26.609c-7.184,12.93-8.87,28.959-2.258,42.076
	c2.587,5.132,7.101,10.093,12.849,10.159c3.984,0.046,7.563-2.271,10.865-4.502c11.389-7.692,22.778-15.384,34.167-23.076
	c3.163-2.137,6.447-4.402,8.257-7.762c1.636-3.036,1.873-6.607,2.013-10.052C372.788,277.18,372.788,269.359,372.47,261.551z"/>
<path style="fill:#DC8744;" d="M318.184,313.231c-3.912-7.764-3.159-18.317,1.969-27.544l1.789-3.22l0.152-3.682
	c0.217-5.257,3.74-10.956,8.767-14.18c6.07-3.892,13.394-4.711,18.466-4.711c2.444,0,4.969,0.184,7.524,0.546
	c0.04,0.483,0.076,1.056,0.104,1.741c0.301,7.352,0.301,14.812,0.003,22.181c-0.028,0.682-0.096,2.33-0.243,3.253
	c-0.756,0.67-2.307,1.716-3.199,2.317c0,0-34.744,23.465-35.113,23.708C318.33,313.511,318.257,313.375,318.184,313.231z"/>
<path style="fill:#FCD462;" d="M143.698,392.982h110.515c6.854,0,13.646-1.649,19.622-5.005
	c40.977-23.008,68.318-83.039,68.318-130.195c0-72.235-64.112-130.793-143.198-130.793c-79.086,0-143.197,58.558-143.197,130.793
	c0,47.156,27.341,107.187,68.318,130.195C130.053,391.333,136.844,392.982,143.698,392.982z"/>
<path style="fill:#DC8744;" d="M280.455,335.615c-1.686,5.619-5.245,10.49-9.054,14.923c-3.247,3.809-6.806,7.368-11.114,9.803
	c-6.931,3.809-15.235,4.246-23.165,4.558c-12.113,0.437-24.663,0.874-36.027-3.559c-1.311-0.5-2.685-1.124-4.183-1.186
	c-1.873-0.063-3.684,0.749-5.37,1.561c-9.428,4.495-19.419,8.929-29.846,8.617c-9.74-0.312-18.794-4.808-27.348-9.491
	c-10.989-6.119-21.729-12.8-32.031-19.981c6.744-0.063,13.487-0.125,20.23-0.187h0.063c6.993-0.063,13.924-0.063,20.855-0.125
	c4.371-0.063,8.679-0.063,12.987-0.125c5.058-0.062,10.053-0.062,15.111-0.125c0.999,0,1.936,0,2.934-0.125
	c1.311-0.125,2.623-0.437,3.809-1.061c1.936-1.124,3.309-3.247,5.433-3.996c2.872-0.999,5.931,0.812,8.616,2.31
	c4.184,2.373,8.679,4.121,13.362,5.183c7.306,1.811,15.048,1.998,22.478,0.5c2.123-0.437,4.183-0.937,6.181-1.623
	c10.053-3.372,18.981-9.99,25.288-18.545c2.061-2.81,3.934-8.304,7.493-9.553c3.934-1.436,9.178,2.31,11.364,5.307
	C281.891,323.501,282.203,329.995,280.455,335.615z"/>
<g>
	<path style="fill:#E1E6E9;" d="M231.003,353.722H208.65l-2.935-11.114c7.306,1.811,15.048,1.998,22.478,0.5L231.003,353.722z"/>
	<polyline style="fill:#E1E6E9;" points="174.496,340.173 178.804,357.219 156.451,357.219 156.451,340.422 	"/>
	<path style="fill:#E1E6E9;" d="M143.464,340.547l-3.434,15.984l-20.231-6.619c0,0,1.374-4.371,2.747-9.241h0.063
		C129.602,340.61,136.533,340.61,143.464,340.547z"/>
</g>
<path style="fill:#3A556A;" d="M200.028,209.266c1.446-2.124,2.968-4.32,5.194-5.603c1.528-0.881,3.282-1.268,5.006-1.642
	c3.852-0.838,7.704-1.676,11.556-2.514c6.82-1.484,13.716-2.975,20.695-2.84c22.282,0.432,41.443,17.764,50.68,38.046
	c1.284,2.82,2.116,6.798-0.49,8.475c-0.928,0.597-2.078,0.704-3.179,0.779c-19.844,1.344-40.216-2.542-59.431,2.592
	c-9.002,2.405-41.573,21.254-49.431,12.424C171.608,248.845,194.68,217.12,200.028,209.266z"/>
<path style="fill:#E1E6E9;" d="M290.256,242.289c0,0-6.736-15.953-22.759-28.444c-21.82-17.011-53.643-13.337-70.296,8.757
	c-7.708,10.227-14.962,24.774-19.164,45.359c0,0,20.013,19.834,46.775,24.812c20.334,3.783,40.568-5.25,52.03-22.466
	C281.459,263.371,286.183,254.235,290.256,242.289z"/>
<circle style="fill:#D15241;" cx="245.004" cy="254.064" r="19.843"/>
<circle style="fill:#2F4859;" cx="246.584" cy="249.887" r="8.142"/>
<circle style="fill:#EBF0F3;" cx="241.577" cy="256.955" r="6.556"/>
<g>
	<path style="fill:#64798A;" d="M271.341,188.497c-3.715,6.908-10.502,12.09-18.145,13.851c5.111,0.008,10.223,0.016,15.334,0.025
		c0.825,0.001,1.684-0.005,2.423-0.371c0.938-0.465,1.514-1.421,2.039-2.327c1.201-2.075,2.443-4.328,2.209-6.714
		c-0.234-2.386-2.711-4.663-4.925-3.742"/>
	<path style="fill:#64798A;" d="M78.184,249.568c3.715,6.908,10.502,12.09,18.146,13.851c-5.111,0.008-10.223,0.016-15.334,0.025
		c-0.825,0.001-1.684-0.005-2.423-0.371c-0.938-0.465-1.514-1.421-2.038-2.327c-1.201-2.075-2.443-4.328-2.209-6.714
		c0.234-2.386,2.711-4.663,4.925-3.742"/>
	<path style="fill:#64798A;" d="M66.488,260.751c3.065,5.7,8.665,9.975,14.972,11.429c-4.217,0.007-8.435,0.014-12.652,0.02
		c-0.681,0.001-1.389-0.004-1.999-0.306c-0.774-0.384-1.249-1.172-1.682-1.92c-0.991-1.712-2.016-3.571-1.823-5.54
		c0.193-1.968,2.237-3.847,4.063-3.088"/>
	<path style="fill:#64798A;" d="M279.194,199.775c-2.936,5.46-8.3,9.555-14.341,10.947c4.04,0.007,8.079,0.013,12.119,0.02
		c0.652,0.001,1.331-0.004,1.915-0.293c0.742-0.367,1.197-1.123,1.611-1.839c0.949-1.64,1.931-3.421,1.746-5.306
		c-0.185-1.885-2.143-3.685-3.892-2.958"/>
	<path style="fill:#64798A;" d="M288.722,210.742c-2.343,4.357-6.623,7.624-11.443,8.735c3.223,0.005,6.447,0.01,9.67,0.016
		c0.52,0.001,1.062-0.003,1.528-0.234c0.592-0.293,0.955-0.896,1.286-1.467c0.757-1.308,1.541-2.73,1.393-4.234
		c-0.147-1.504-1.71-2.94-3.106-2.36"/>
</g>
<path style="fill:#3A556A;" d="M144.449,266.63c-6.547-4.867-13.986-8.902-22.085-9.88c-9.714-1.174-19.351,2.115-28.583,5.355
	c-9.121,3.201-18.737,6.743-24.77,14.296c-1.712,2.143-3.121,4.708-3.082,7.45c8.97,2.184,18.253-1.249,27.469-1.787
	c11.357-0.662,23.022,3.076,33.968-0.026c3.976-1.127,7.658-3.117,11.596-4.369c2.588-0.823,9.157,0.102,10.703-2.091
	C151.889,272.425,146.522,268.171,144.449,266.63z"/>
<path style="fill:#E1E6E9;" d="M152.039,276.586c0,0-26.524-38.715-85.355,7.177C66.684,283.763,114.876,329.758,152.039,276.586z"
	/>
<ellipse style="fill:#D15241;" cx="119.749" cy="273.411" rx="12.644" ry="12.644"/>
<circle style="fill:#3A556A;" cx="119.727" cy="273.42" r="6.35"/>
<circle style="fill:#EBF0F3;" cx="121.313" cy="269.281" r="4.29"/>
<path style="fill:#3A556A;" d="M6.675,294.075c1.816,5.68,7.255,10.014,13.197,10.517c5.942,0.503,12.031-2.855,14.777-8.148
	c1.596-3.078,2.095-6.62,2.083-10.086c-0.05-14.912-8.885-28.302-12.018-42.881c-2.929-13.632-0.626-28.321,6.333-40.403
	c6.96-12.082,18.511-21.444,31.772-25.75c-7.377-0.271-14.607-3.475-19.762-8.759c25.099,0.388,47.959-13.382,69.244-26.69
	c-10.348,0.734-20.873-1.203-30.282-5.572c12.753-9.039,26-17.382,39.662-24.978c-7.76-10.992-14.991-23.75-20.527-36.014
	c15.991,10.509,35.638,14.055,54.769,14.47c19.13,0.415,38.206-2.054,57.336-2.472c9.294-0.203,18.738,0.102,27.618,2.851
	c10.445,3.234,20.075,9.818,31.004,10.178c9.424,0.311,18.326-4.088,27.64-5.563c12.888-2.041,26.597,1.87,36.469,10.403
	s15.724,21.533,15.568,34.58c9.625,1.73,18.415-5.765,28.083-7.24c7.939-1.212,15.862,1.713,23.361,4.586
	c11.898,4.559,24.297,9.459,32.657,19.074c11.42,13.135,12.787,32.725,7.864,49.42c-4.923,16.694-15.222,31.198-25.348,45.354
	c-4.176,5.838-1.431,14.592-0.771,21.74s3.784,14.419,9.762,18.392c6.349,4.219,14.846,3.999,21.978,1.308
	c7.132-2.691,13.206-7.54,19.15-12.313c-0.756,15.099-17.685,27.074-32.174,22.759c3.721,6.051,7.441,12.101,11.162,18.152
	c-12.124,5.358-26.665,3.793-38.309-2.541c-11.644-6.334-20.533-17.017-26.373-28.917c3.607,11.435,7.214,22.87,10.821,34.305
	c-21.168-23.677-38.552-50.729-51.295-79.821c-5.458,4.645-10.916,9.29-16.374,13.935c2.563-20.015-1.964-40.427-9.754-59.041
	c-7.79-18.614-18.752-35.701-29.657-52.679c-1.202,13.531,0.1,27.28,3.819,40.345c-3.123-13.226-11.612-25.102-23.114-32.339
	c3.191,9.456,6.381,18.911,9.572,28.367c-12.647-8.07-20.948-22.565-21.508-37.558c-26.543,7.823-50.009,25.645-64.67,49.113
	c-2.914-19.778,10.539-37.95,23.963-52.764c-50.933,7.984-94.069,39.497-135.576,70.077c3.042-13.414,15.366-41.183,22.16-42.536
	c-10.068,5.97-20.22,12.523-26.89,22.142c-7.99,11.524-10.055,26.174-9.846,40.195c0.209,14.021,2.454,27.982,2.104,42.001
	s-3.646,28.623-12.954,39.111c-1.234-10.254-1.8-20.588-1.692-30.915c-2.569,6.717-5.177,13.511-9.297,19.406
	s-9.971,10.894-16.977,12.513c-8.713,2.014-18.485-1.903-23.395-9.377c-1.441-2.193-2.507-4.879-1.83-7.415
	C0.886,294.064,4.375,292.809,6.675,294.075z"/>
<g>
</g>
<g>
</g>
<g>
</g>
<g>
</g>
<g>
</g>
<g>
</g>
<g>
</g>
<g>
</g>
<g>
</g>
<g>
</g>
<g>
</g>
<g>
</g>
<g>
</g>
<g>
</g>
<g>
</g>
</svg>
