<?xml version="1.0" encoding="iso-8859-1"?>
<!-- Generator: Adobe Illustrator 19.0.0, SVG Export Plug-In . SVG Version: 6.00 Build 0)  -->
<svg version="1.1" id="Layer_1" xmlns="http://www.w3.org/2000/svg" xmlns:xlink="http://www.w3.org/1999/xlink" x="0px" y="0px"
	 viewBox="0 0 512 512" style="enable-background:new 0 0 512 512;" xml:space="preserve">
<g>
	<g>
		<path d="M346.334,135.179h-25.232v-23.717c0-5.579-4.52-10.099-10.099-10.099s-10.099,4.52-10.099,10.099v23.717h-25.232
			c-5.579,0-10.099,4.52-10.099,10.099c0,5.579,4.52,10.099,10.099,10.099h25.232v77.166c0,5.579,4.52,10.099,10.099,10.099
			s10.099-4.52,10.099-10.099v-77.166h25.231c5.579,0,10.099-4.52,10.099-10.099C356.432,139.7,351.912,135.179,346.334,135.179z"/>
	</g>
</g>
<g>
	<g>
		<path d="M353.883,12.51h-41.789c-37.822,0-74.422,13.568-103.055,38.205c-24.897,21.421-42.456,50.006-50.337,81.54
			c-4.208-2.429-9.083-3.83-14.28-3.83c-7.076,0-13.563,2.577-18.569,6.842c-5.005-4.265-11.492-6.842-18.568-6.842
			c-15.807,0-28.668,12.86-28.668,28.667v68.217H61.728c-14.292,0-25.92,11.628-25.92,25.919c0,14.292,11.628,25.92,25.92,25.92
			h16.887v128.951c-7.294,3.158-13.774,8.058-18.785,14.311c-5.619-2.734-11.827-4.181-18.2-4.181
			C18.676,416.229,0,434.905,0,457.86c0,22.955,18.676,41.63,41.63,41.63h242.711c0.018,0,0.035-0.001,0.053-0.001H460.11h41.791
			c5.577,0,10.099-4.52,10.099-10.099V170.626C512,83.44,441.07,12.51,353.883,12.51z M61.728,256.951
			c-3.155,0-5.722-2.567-5.722-5.722c0-3.155,2.567-5.72,5.722-5.72h26.987c5.578,0,10.099-4.52,10.099-10.099v-78.316
			c0-4.67,3.799-8.469,8.47-8.469c4.67,0,8.469,3.799,8.469,8.469v68.783c0,5.579,4.522,10.099,10.099,10.099
			c5.577,0,10.099-4.52,10.099-10.099v-68.783c0-4.67,3.799-8.469,8.47-8.469c4.67,0,8.469,3.799,8.469,8.469v68.783
			c0,5.579,4.522,10.099,10.099,10.099c5.578,0,10.099-4.52,10.099-10.099v-68.783c0-2.697,1.348-5.297,3.537-6.87
			c5.513-3.959,13.4,0.113,13.4,6.87v68.783c0,5.579,4.522,10.099,10.099,10.099c5.577,0,10.099-4.52,10.099-10.099v-68.783
			c0-4.67,3.799-8.469,8.47-8.469c4.67,0,8.469,3.799,8.469,8.469c0,0,0,244.973,0,245c0-0.058-4.872,0.366-5.28,0.42
			c-1.818,0.238-3.624,0.58-5.404,1.019c-3.56,0.881-7.024,2.156-10.303,3.8c-1.526,0.774-3.02,1.611-4.458,2.536
			c-9.954-10.534-23.988-16.762-38.73-16.762s-28.776,6.228-38.73,16.762c-6.251-4.021-13.45-6.577-20.83-7.438
			c-1.527-0.178-3.076-0.306-4.613-0.337V267.05c0-5.579-4.522-10.099-10.099-10.099H61.728z M284.316,479.292H41.63
			c-11.818,0-21.432-9.615-21.432-21.432s9.615-21.432,21.432-21.432c5.351,0,10.475,1.983,14.427,5.584
			c2.377,2.165,5.643,3.068,8.793,2.436c3.151-0.634,5.813-2.729,7.168-5.646c7.306-15.74,27.98-21.386,42.192-11.384
			c1.586,1.116,3.057,2.396,4.388,3.805c2.175,2.3,5.297,3.447,8.45,3.104c6.367-0.693,9.321-8.385,13.617-12.353
			c6.049-5.587,14.097-8.668,22.321-8.668c9.54,0,18.331,3.986,24.521,10.904c1.429,1.597,2.719,3.349,3.847,5.246
			c0.202,0.339,0.424,0.667,0.661,0.976c2.708,3.535,7.636,4.912,11.766,3.186c3.084-1.289,4.947-4.061,7.612-5.906
			c2.739-1.896,5.695-3.375,8.908-4.282c6.245-1.765,13.036-1.378,19.007,1.186c4.662,2.002,8.753,5.289,11.765,9.367
			c3.065,4.147,4.285,9.307,10.047,10.467c3.15,0.634,6.416-0.271,8.793-2.436c3.952-3.602,9.076-5.584,14.427-5.584
			c11.817,0,21.432,9.615,21.432,21.432C305.773,469.676,296.159,479.291,284.316,479.292z M320.021,479.291
			c0.046-0.077,0.085-0.158,0.131-0.234c9.367-15.77,6.994-36.172-5.423-49.563c-3.372-3.637-7.387-6.671-11.824-8.89
			c-11.396-5.701-25.275-5.763-36.738-0.203c-4.978-6.259-11.418-11.181-18.807-14.344V157.092c0-15.807-12.86-28.667-28.667-28.667
			c-7.076,0-13.563,2.577-18.569,6.842c-5.005-4.265-11.492-6.842-18.568-6.842c-0.261,0-0.521,0.004-0.782,0.011
			c7.729-24.036,22.031-45.712,41.437-62.411c24.971-21.484,56.892-33.317,89.882-33.317c76.047,0,137.917,61.869,137.917,137.918
			v308.664H320.021z M491.802,479.291h-21.592V170.626c0-34.845-12.184-69.336-33.418-96.896
			c-8.118-10.538-17.573-20.045-28.096-28.188c-0.43-0.333-0.86-0.664-1.294-0.992c-0.743-0.563-1.492-1.118-2.245-1.667
			c-0.285-0.209-0.566-0.426-0.852-0.633c51.182,20.173,87.497,70.114,87.497,128.376V479.291z"/>
	</g>
</g>
<g>
</g>
<g>
</g>
<g>
</g>
<g>
</g>
<g>
</g>
<g>
</g>
<g>
</g>
<g>
</g>
<g>
</g>
<g>
</g>
<g>
</g>
<g>
</g>
<g>
</g>
<g>
</g>
<g>
</g>
</svg>
